<?xml version="1.0" encoding="UTF-8" standalone="no"?>
<svg xmlns:dc="http://purl.org/dc/elements/1.1/" xmlns:cc="http://creativecommons.org/ns#" xmlns:rdf="http://www.w3.org/1999/02/22-rdf-syntax-ns#" xmlns:svg="http://www.w3.org/2000/svg" xmlns="http://www.w3.org/2000/svg" xmlns:xlink="http://www.w3.org/1999/xlink" xmlns:sodipodi="http://sodipodi.sourceforge.net/DTD/sodipodi-0.dtd" xmlns:inkscape="http://www.inkscape.org/namespaces/inkscape" width="600" height="660" viewBox="-300 -300 600 660" id="svg3218" version="1.1" inkscape:version="0.48.1 " sodipodi:docname="Blason Vide 3D.svg">
  <metadata id="metadata3245">
    <rdf:RDF>
      <cc:Work rdf:about="">
        <dc:format>image/svg+xml</dc:format>
        <dc:type rdf:resource="http://purl.org/dc/dcmitype/StillImage"/>
        <dc:title/>
      </cc:Work>
    </rdf:RDF>
  </metadata>
  <sodipodi:namedview pagecolor="#ffffff" bordercolor="#666666" borderopacity="1" objecttolerance="10" gridtolerance="10" guidetolerance="10" inkscape:pageopacity="0" inkscape:pageshadow="2" inkscape:window-width="1920" inkscape:window-height="1058" id="namedview3243" showgrid="false" inkscape:zoom="1.238194" inkscape:cx="156.1996" inkscape:cy="332.48356" inkscape:window-x="-8" inkscape:window-y="-8" inkscape:window-maximized="1" inkscape:current-layer="layer3"/>
  <defs id="defs3220">
    <radialGradient id="Gradient1" gradientUnits="userSpaceOnUse" cx="-80" cy="-80" r="405">
      <stop style="stop-color:#fff;stop-opacity:0.31" offset="0" id="stop3223"/>
      <stop style="stop-color:#fff;stop-opacity:0.25" offset="0.19" id="stop3225"/>
      <stop style="stop-color:#6b6b6b;stop-opacity:0.125" offset="0.6" id="stop3227"/>
      <stop style="stop-color:#000;stop-opacity:0.125" offset="1" id="stop3229"/>
    </radialGradient>
    <clipPath id="shield_cut">
      <path id="shield" d="M-298.5,-298.5 h597 v258.5 C 298.5,246.2 0,358.39 0,358.39 0,358.39 -298.5,246.2 -298.5,-40z"/>
    </clipPath>
  </defs>
  <g id="layer4" inkscape:label="Fond écu" inkscape:groupmode="layer" style="display:inline" sodipodi:insensitive="true">
    <use xlink:href="#shield" id="use3234" style="fill:#e20909" x="0" y="0" width="600" height="660"/>
    <path style="opacity:0.98999999;fill:#2b5df2;stroke:#000000;stroke-width:3;stroke-linecap:round;stroke-linejoin:miter;stroke-miterlimit:4;stroke-opacity:1;stroke-dasharray:none" d="m 1.5,1.5 0,158.59375 597,0 0,-158.59375 -597,0 z" transform="translate(-300,-300)" id="rect4493" inkscape:connector-curvature="0"/>
  </g>
  <g id="layer3" inkscape:label="Meubles" inkscape:groupmode="layer" sodipodi:insensitive="true">
    <g id="g4679">
      <g transform="matrix(1.4610827,0,0,1.2995834,-241.12035,-355.52452)" id="g3952" style="fill:#ffffff;stroke:#000000;stroke-width:1.60000002;stroke-miterlimit:4;stroke-opacity:1;stroke-dasharray:none;display:inline">
        <path d="m 72.506248,316.66225 c 0.248733,1.41955 -0.01276,2.77096 -0.710105,4.13181 -1.710961,1.54029 -3.86804,2.61605 -6.3986,3.22491 -0.996482,0.97149 -1.190437,2.08476 -0.587063,3.10002 1.964811,0.11584 3.500597,0.5576 4.825303,1.32058 l 2.963006,-0.77653 -2.963006,0.77653 c 0.370063,0.30865 0.814479,0.69484 1.186254,1.08261 1.50935,2.57972 2.354632,4.69884 2.466628,6.51714 1.452878,-0.0314 2.898921,-0.37933 4.263755,-1.12131 2.793743,-1.88194 5.296925,-3.7568 7.212112,-5.9356 -2.56992,-1.21103 -4.722793,-3.30185 -6.6022,-6.19022 -0.265846,-2.2108 -1.18548,-4.40746 -2.758894,-6.58919 -1.175979,-0.60707 -2.11693,-0.4284 -2.89719,0.45925 z" id="path3733" style="fill:#ffffff;fill-opacity:1;stroke:#000000;stroke-width:1.60000002;stroke-miterlimit:4;stroke-opacity:1;stroke-dasharray:none" inkscape:connector-curvature="0"/>
        <path d="m 285.11753,178.34162 c -0.0734,-0.0791 -0.0734,-0.15828 -0.0734,-0.15828 -0.21793,-0.39572 -0.43593,-0.63316 -0.65316,-0.94973 -0.0734,-0.15829 -0.14534,-0.23743 -0.14534,-0.31658 -0.29066,-0.31657 -0.50866,-0.554 -0.80002,-0.87058 -0.94459,-1.02887 -2.10642,-1.89945 -3.48771,-2.5326 -0.0727,-0.0791 -0.218,-0.0791 -0.2899,-0.15829 -1.16329,-0.47486 -2.32519,-0.94973 -3.70648,-1.2663 -2.54311,-0.31658 -4.9409,0.39572 -7.12075,2.05774 -2.17985,2.29517 -2.76112,4.43205 -1.74386,6.25236 0,0.0791 0,0.15829 0.0734,0.23744 0.0727,-0.0791 0.0727,-0.23744 0.14533,-0.31658 0.87123,-2.77004 3.19635,-4.27377 7.04739,-4.66949 1.67195,0.0791 3.05178,0.39572 4.06974,0.94973 0.87193,0.47486 1.52586,1.10801 2.03452,1.82031 0.14533,0.23743 0.218,0.47486 0.36326,0.71229 0.14534,0.23743 0.218,0.63315 0.36333,1.02887 0.5086,4.66949 -0.50859,8.23096 -3.05178,10.76357 -3.26971,3.2449 -7.26608,4.27377 -12.06172,3.00747 -4.79633,-1.26631 -8.57395,-0.7123 -11.40773,1.74116 -0.0727,0 -0.0727,0 -0.0727,0 -2.17985,2.29517 -3.85174,4.98607 -4.94166,8.15182 1.08992,-3.16575 2.76181,-5.85665 4.94166,-8.15182 l 0,-0.0791 c -0.94529,-5.2235 -3.48847,-9.10155 -7.48478,-11.79244 -2.76112,-1.02887 -5.8129,-1.42459 -9.22725,-0.94973 l 0,0 c -4.79633,0.79144 -7.70278,3.32405 -8.64661,7.67696 -0.65399,3.08661 0.14527,5.7775 2.47045,7.91439 1.37983,1.02887 2.97912,1.18715 4.86754,0.23743 -3.26971,-1.10802 -4.35964,-3.08661 -3.19635,-6.01494 0.87193,-1.18715 2.39779,-1.89945 4.64961,-1.89945 2.10712,0.0791 3.77831,1.10802 5.01357,3.00747 1.45319,3.56147 1.88919,6.56894 1.23526,9.25983 -0.218,1.02887 -0.654,1.9786 -1.23526,2.84918 -6.24883,9.57641 -9.95454,20.10254 -11.1898,31.65755 -0.72659,9.10154 -0.79926,15.74963 -0.43593,19.94425 0.0727,1.50374 0.2906,3.00747 0.43593,4.66949 0.36333,3.00747 0.87193,6.41066 1.45326,10.05127 0.94529,5.61922 3.41504,13.61275 7.48478,24.21882 1.96109,5.54007 4.50428,9.7347 7.77399,12.50473 1.01726,0.79144 1.81652,1.50294 2.68845,2.29438 2.61655,2.53261 4.14171,5.22429 4.50497,7.99432 -1.16253,-3.00746 -3.26971,-4.82856 -6.32149,-5.54007 -0.5086,-0.0799 -1.0165,-0.23743 -1.52586,-0.23743 -2.54312,-0.39572 -5.0863,-0.0799 -7.55675,0.79144 -1.59853,0.1575 -3.12445,0.1575 -4.50497,-0.15828 -2.76112,-0.63316 -5.0863,-2.21603 -6.90283,-4.66949 -1.81652,-3.2449 -1.01649,-6.6473 2.32519,-10.13042 -3.63305,0.71229 -6.0309,2.77003 -7.41142,6.25236 -0.7266,3.2449 -0.65323,6.09329 0.36333,8.62589 2.54312,3.9572 5.74016,5.85666 9.59121,5.62001 0.29066,0 0.50866,0 0.80002,0 -0.29066,0.1575 -0.50866,0.39572 -0.80002,0.55322 -2.54312,1.8211 -5.5949,3.16575 -9.15528,4.03713 2.46975,1.8203 5.52223,1.89866 9.15528,0.23743 -5.15891,4.19463 -6.90276,8.94326 -5.30424,14.32504 2.39779,5.69836 6.24883,8.46839 11.6984,8.07267 l 0.0734,0 c 0.0726,-0.0791 0.14527,-0.0791 0.28991,-0.0791 0.50859,-0.0799 0.94529,-0.15829 1.45319,-0.23743 4.35964,-1.8211 6.17616,-4.19541 5.5949,-7.12295 -1.67119,2.61175 -4.14165,3.71897 -7.19273,3.40318 -3.63304,-1.26709 -5.44956,-3.95719 -5.3769,-8.3101 0.436,-2.61175 1.45326,-4.59034 2.97912,-6.01573 1.81652,-1.66202 4.43307,-2.61174 7.77475,-2.61174 8.13801,0.87137 13.22425,3.95719 15.1861,9.25983 1.81653,5.61921 2.10643,10.76357 0.79927,15.67049 -2.25246,6.56894 -6.90276,11.5558 -13.95092,14.87904 -4.35964,1.66282 -8.50058,2.29517 -12.35232,2.29517 -3.85104,-0.15828 -7.48409,-1.10801 -10.89913,-2.92831 -4.21438,-3.08583 -8.50065,-5.9358 -12.57039,-8.6259 0,-0.0799 -0.14533,-0.0799 -0.14533,-0.0799 -5.23081,-3.9572 -9.59051,-9.41733 -13.07892,-16.38279 -1.88919,-3.95719 -3.26978,-8.07188 -3.85104,-12.109 0,-0.0791 0,-0.0791 0,-0.15829 -0.50867,-4.98607 -1.37983,-9.97213 -2.76112,-14.9574 l 0.218,-0.23743 c 2.17979,2.13609 4.35964,3.16575 6.46682,3.08581 -3.48777,-3.48154 -5.95822,-7.51867 -7.33951,-12.02987 -0.0727,-0.39571 -0.0727,-0.7115 -0.0727,-1.18715 l -0.36257,0.0791 c -1.88919,1.10722 -4.1417,1.58288 -6.68482,1.42459 -2.90645,-0.31658 -5.23157,-1.34545 -7.19269,-3.16575 -2.03523,-1.82031 -3.56039,-4.35292 -4.57837,-7.67696 -1.30789,0.94973 -2.61579,1.66281 -3.92296,2.21603 0,0.15829 -0.0727,0.23822 -0.14533,0.39572 -2.68845,4.82857 -6.3215,8.39004 -11.04446,10.68442 -1.16257,0.55401 -2.39781,1.02966 -3.63304,1.42538 0.87192,-0.94973 1.52587,-1.97859 2.10716,-3.00826 1.23523,-2.37431 1.59855,-4.90613 1.16258,-7.43873 -1.96185,0.55401 -3.63305,1.42459 -5.08627,2.6901 -0.58129,0.47566 -1.08992,1.10801 -1.59854,1.74117 -2.90644,3.40319 -2.90644,6.88551 -0.14532,10.60527 -2.10717,0.31579 -3.63305,-0.23743 -4.72296,-1.74116 -0.36331,-0.55401 -0.65395,-1.10802 -0.87194,-1.74116 -0.0727,-0.23744 -0.0727,-0.31579 -0.14532,-0.47487 -0.94459,-3.24569 -0.0727,-6.48979 2.61579,-9.73469 0.50863,-0.63395 1.01726,-1.18716 1.59855,-1.74117 -4.6503,1.89866 -7.33876,4.98607 -7.92005,9.41733 0.36331,2.13688 1.16258,4.19541 2.39782,6.01572 0,0.0792 0.14532,0.23743 0.21798,0.31579 0.43596,0.63394 1.01725,1.34544 1.59854,1.9786 0.0727,0.0799 0.0727,0.0799 0.0727,0.0799 -3.85103,-0.94973 -6.97545,-3.24569 -9.3006,-7.12295 -1.23524,-2.45425 -1.38056,-5.54007 -0.3633,-9.41812 0,0 0,0 0.0727,-0.0791 0.21798,-1.10802 0.65395,-2.21603 1.08991,-3.48233 l -5.59489,4.27377 c -2.32515,1.34544 -5.15893,2.05774 -8.42868,1.97859 l -0.0727,0 c -1.74386,0.23743 -3.41506,0.71151 -4.94094,1.34545 -2.83377,1.10722 -5.23159,3.00747 -7.26609,5.61921 -1.52588,-1.2663 -1.88918,-3.16575 -1.01726,-5.46092 0.43597,-0.71151 0.87194,-1.42459 1.38056,-2.13609 l -2.68845,0.79143 c -6.17618,5.98113 -12.352361,9.08767 -18.528541,19.78597 -0.871934,0.87059 -1.017253,1.82031 -0.50863,2.53181 -3.051761,0.23822 -5.449566,1.10802 -7.120769,3.00826 -2.619878,3.40019 -6.033651,5.96748 -9.591247,8.31011 -3.843654,0.45879 -11.118759,-6.4576 -15.258798,2.05695 0.145319,0.63315 0.58129,1.02886 1.525877,1.2663 3.781636,0.32108 5.681741,3.54715 2.761116,6.25316 0.65395,3.08661 2.543138,4.98606 5.594892,5.85664 2.000452,-1.64902 3.639927,-7.26877 6.321507,-1.42538 l 3.415066,-3.48154 c 1.307892,-1.66281 1.743862,-3.64141 1.380558,-5.93579 0.363304,2.29438 -0.07267,4.27298 -1.380558,5.93579 l -3.415066,3.48154 c -1.453224,2.21682 -2.325152,4.43285 -2.688456,6.64809 l 1.453217,3.16575 c 2.234719,-4.63204 7.322808,-1.8216 8.13803,2.21603 1.525877,1.26709 3.923689,1.50373 7.120769,0.79144 -1.525878,-1.58288 -2.470472,-3.32404 -2.906436,-5.30264 -0.07266,-0.0791 -0.07266,-0.0791 -0.07266,-0.0791 -0.145326,-0.87059 -0.290645,-1.89946 -0.290645,-2.92833 0,1.02887 0.145319,2.05853 0.290645,2.92833 l 0.726609,-0.15829 c 2.179826,-1.66202 6.541824,0.1079 9.012295,0.89933 3.051761,-3.40319 2.831437,-9.05115 3.267401,-12.29526 0.07266,0 0.07266,0 0.07266,-0.0799 1.525884,4.90693 5.013604,6.09409 10.681164,3.48233 -4.287,0.47487 -5.15893,-1.18715 -2.39782,-4.82856 0.0727,0.0799 0.14533,0.0799 0.29065,0.0799 2.54314,-1.18716 3.92369,-2.77003 3.99635,-4.74863 0,-0.23743 0,-0.47565 0,-0.7123 0.0727,0.1583 0.21798,0.39573 0.21798,0.55401 0,0 0,0 0.0727,0.0791 1.08991,2.61254 2.10716,3.56147 2.90643,3.08661 0.50863,-4.59034 1.74387,-7.91439 3.63305,-9.81384 -0.14532,5.46093 1.16258,8.39004 4.06901,8.94405 0.43597,-3.16575 1.01726,-5.85665 1.74386,-8.15261 0.0727,-0.0791 0.0727,-0.23743 0.14533,-0.31579 1.01725,-3.00746 2.39781,-5.06521 4.06901,-6.48979 0.14532,2.5326 -0.50863,5.14435 -2.0345,7.67695 2.90643,-1.26709 5.23158,-3.16575 7.04811,-5.7775 1.38055,-2.45425 1.96184,-5.14435 1.88918,-8.07267 2.9791,6.09407 2.83378,11.79164 -0.36331,17.09507 l 8.86464,-7.67695 c 0.87194,-0.71151 1.81652,-1.42459 2.76112,-2.05775 3.85103,-2.69089 8.06536,-4.11547 12.64301,-4.35291 -4.57765,0.23744 -8.79198,1.66202 -12.64301,4.35291 -0.9446,0.63316 -1.88918,1.34545 -2.76112,2.05775 0.65395,4.59113 0,7.91438 -1.88918,10.20955 3.26974,0.39572 5.74021,-1.82031 7.26609,-6.48979 0.14532,-0.39572 0.21798,-0.71151 0.36331,-1.10722 -0.79928,4.19462 0.0727,7.12294 2.61579,8.94325 5.30425,2.6901 10.82648,4.51121 16.49404,5.46014 0.79927,0.23822 1.59853,0.47565 2.32515,0.79144 0.58128,0.23822 1.08991,0.554 1.6712,0.87137 0.65322,0.23743 1.23451,0.63315 1.81652,1.10722 2.68773,1.89945 4.86756,4.5112 6.75747,7.99433 0.65324,-1.89946 0.58127,-4.27377 -0.21799,-7.04381 -1.08991,-1.89866 -2.39853,-3.48154 -3.85175,-4.90692 -0.94459,-0.79144 -1.88918,-1.50294 -2.83305,-2.05774 0.94459,0.55401 1.88919,1.2663 2.83305,2.05774 1.45322,1.42538 2.76184,3.00826 3.85175,4.90692 0.79926,2.77004 0.87123,5.14435 0.21799,7.04381 -0.0734,0 -0.14533,0.0791 -0.0734,0.15828 -1.1626,2.29439 -1.81655,4.6687 -2.03453,7.36039 -0.0727,0.39571 -0.0727,0.87057 -0.0727,1.2663 0,1.66281 0.0727,3.40318 0.28992,5.14434 1.01726,2.45426 1.45325,4.66949 1.23525,6.72723 -0.21799,1.89946 -0.9446,3.71976 -2.17984,5.30265 -0.14532,0.15828 -0.21798,0.31657 -0.43597,0.554 -4.14167,3.87726 -7.19343,7.7561 -9.37326,11.63415 -2.17982,4.43206 -3.48772,8.94326 -3.99635,13.37452 -0.29065,4.5112 -0.43597,8.39005 -0.50863,11.47586 0.0727,1.66282 -0.43596,3.08662 -1.59854,4.27377 -1.16257,1.10723 -2.83377,2.05775 -5.15893,2.6901 -2.0345,0.55401 -3.92369,0.55401 -5.52223,0 -1.81652,-0.7115 -3.05176,-1.89866 -3.77837,-3.64061 -0.29064,-0.47487 -0.43596,-1.18716 -0.58128,-1.82031 -0.50863,-3.08661 0.58128,-6.17322 3.3424,-9.18148 -2.90644,0.63394 -5.30425,2.13688 -7.19343,4.43284 -1.3079,3.00747 -1.6712,5.77751 -1.01726,8.23018 0.0727,0.31657 0.21798,0.554 0.29064,0.87137 1.16258,3.08582 2.83379,5.30264 5.01361,6.72723 4.06902,1.66202 8.35601,1.89866 12.57034,0.55401 0.0727,0 0.21799,0 0.29065,-0.0799 2.17982,-1.18716 3.99635,-2.61174 5.52223,-4.19463 0.0727,-0.15828 0.21799,-0.23743 0.29065,-0.39571 0.0727,-0.0791 0.14531,-0.23743 0.21798,-0.31658 0.72661,-0.87058 1.38056,-1.82031 1.88918,-2.77004 0.58129,-1.18715 1.08992,-2.45346 1.45322,-3.7989 -0.3633,1.34544 -0.87193,2.61175 -1.45322,3.7989 -1.23524,3.87806 -1.96185,7.43953 -2.32515,10.68443 0,0 0,0 0,0.0799 1.81653,-2.37431 3.70571,-4.03713 5.52223,-4.90692 1.01726,5.38179 1.16331,9.65555 0.4367,12.66302 -1.01726,3.79891 -2.25322,6.64809 -3.70644,8.23096 0.65395,0.1575 1.3079,0 1.96184,-0.15828 l 0,0 c 1.88919,-0.63315 3.9237,-2.45425 5.95821,-5.62001 1.88918,-2.61174 2.76111,-5.85585 2.68845,-9.57641 -0.0734,-2.05773 -0.36331,-3.87805 -0.8,-5.30263 -0.14532,-0.39573 -0.28992,-0.79144 -0.43596,-1.18716 -0.29064,-0.55401 -0.58129,-1.10723 -0.94459,-1.50294 0.3633,0.39571 0.65321,0.94893 0.94459,1.50294 0.21798,0.39572 0.43596,0.71229 0.72661,1.10801 2.32516,3.08582 5.08627,4.66869 8.21066,4.59035 0.14533,0 0.29066,0 0.50866,-0.0791 0.2899,-0.0799 0.5086,-0.0799 0.79926,-0.0799 0.0734,0 0.0734,0 0.14533,0 1.81652,-0.31578 3.34238,-0.79144 4.57764,-1.50294 -1.81652,0.0791 -3.48771,-0.15829 -4.94097,-0.71229 -2.03452,-0.63315 -3.77837,-1.89945 -5.1589,-3.64062 1.37983,1.74038 3.12438,3.00747 5.1589,3.64062 1.45326,0.554 3.12445,0.79143 4.94097,0.71229 1.96185,-1.10801 3.12438,-2.84997 3.77838,-5.0652 -0.654,2.21603 -1.81653,3.95719 -3.77838,5.0652 -1.23526,0.7115 -2.76112,1.18716 -4.57764,1.50294 -0.0727,0 -0.0727,0 -0.14533,0 -0.2899,0 -0.5086,0 -0.79926,0.0799 3.12438,6.72723 9.30061,10.68442 18.45512,11.95072 0.94536,0.0792 2.03528,0.23743 3.05178,0.31658 -1.0165,-0.0799 -2.10642,-0.23822 -3.05178,-0.31658 -4.79557,7.2021 -7.84735,14.2459 -9.30061,21.44799 -1.08986,4.11549 -1.96179,8.4684 -2.46969,12.90125 -0.36333,0.47486 -0.80002,0.87058 -1.30862,1.34465 -0.36333,0.23822 -0.65323,0.39572 -1.01656,0.55401 -1.01726,0.47565 -2.32512,0.79144 -3.85104,0.94972 -1.59853,-0.15828 -3.12515,-0.94972 -4.43301,-2.37431 -1.67119,-0.23743 -3.55968,-0.23743 -5.66757,0 -1.08991,0.47486 -1.45322,1.2663 -1.08991,2.37431 1.23523,0.39572 2.10716,1.42459 2.61579,3.00747 0.3633,1.66282 0.21871,3.16576 -0.28992,4.66949 -0.0734,0.15829 -0.0734,0.23743 -0.14532,0.39572 l 0,0 c -0.72661,2.29438 -0.65395,4.43206 0.14532,6.25157 4.14165,-0.87058 6.39416,-3.24489 6.8294,-7.20209 0.36333,2.29517 1.30862,3.48233 2.68845,3.71976 0.0734,0 0.0734,0 0.218,0 1.16329,-2.69089 3.05178,-4.90692 5.52293,-6.56894 0.28996,-0.31657 0.65323,-0.55401 1.01656,-0.71229 0.43669,-0.23743 0.87193,-0.47487 1.23519,-0.63316 -0.36326,0.15829 -0.79926,0.39573 -1.23519,0.63316 -0.36333,0.15828 -0.7266,0.39572 -1.01656,0.71229 -2.47046,1.66202 -4.35964,3.87726 -5.52293,6.56894 l 0.80002,3.2449 c 1.23519,-0.39572 2.54312,-0.554 3.77831,-0.47486 1.52592,0.94973 2.61585,2.13689 3.48778,3.48153 0.0727,0 0.0727,0.0799 0.14527,0.0799 0.43599,0.79144 0.87123,1.58288 1.08992,2.53261 l 0.28997,0.23743 c 3.48771,-0.79144 4.79633,-2.37432 3.77831,-4.66949 -0.0727,0 -0.0727,-0.15829 -0.14527,-0.23743 -0.14533,-0.23743 -0.28996,-0.47486 -0.43599,-0.7123 l -2.03452,-2.21603 2.03452,2.21603 c 0.14533,0.23823 0.2899,0.47566 0.43599,0.7123 0.0734,0.0791 0.0734,0.23743 0.14527,0.23743 l 0.29066,-0.23743 c 1.37983,-0.87059 2.61579,-1.74117 3.55968,-2.77003 1.2352,-1.34546 2.10713,-2.84919 2.61649,-4.5112 0.14463,-2.45347 -0.9453,-4.11549 -3.19705,-4.98607 2.25245,0.87058 3.34238,2.5326 3.19705,4.98607 -0.5086,1.6628 -1.38053,3.16574 -2.61649,4.5112 l 0.218,0.31657 c 0,0.1575 0.14527,0.39572 0.2187,0.63315 0.5079,1.10722 1.37983,1.82031 2.68769,2.29438 2.32518,-0.87058 3.8518,-1.89866 4.6503,-3.16576 -0.36327,-1.74037 0.14533,-3.32324 1.45326,-4.6687 1.23519,-0.94972 2.61578,-1.50373 3.99631,-1.50373 0.87192,0 1.74392,0.55401 2.54318,1.58289 0,0 0,0 0.0727,0 1.08987,-0.23744 1.59853,-0.79145 1.38053,-1.58289 0.218,-1.50294 0,-2.92832 -0.36333,-4.35291 -0.0726,-0.15829 -0.0726,-0.31578 -0.14527,-0.39572 -0.28996,-0.7115 -0.58133,-1.42458 -0.94459,-2.13688 -0.14533,-0.1575 -0.29067,-0.39572 -0.436,-0.55322 0,-0.0799 -0.0734,-0.23822 -0.14533,-0.31657 -0.0734,-0.0791 -0.0734,-0.0791 -0.0734,-0.0791 -2.03452,-1.89946 -4.35964,-3.2457 -6.75749,-4.03713 2.39785,0.79143 4.72297,2.13688 6.75749,4.03713 0,0 0,0 0.0734,0.0791 l 0,0 c 0.0727,0.0791 0.14533,0.15829 0.14533,0.31657 0.14464,0 0.218,0.1575 0.36333,0.23743 0.5079,0.23743 0.87117,0.55401 1.37983,0.79144 0.218,0.15829 0.43669,0.23743 0.65393,0.31579 1.67119,0.71229 4.64961,0.47565 8.93728,-0.79144 -3.70571,-1.10723 -5.81283,-2.6901 -6.46683,-4.74863 -0.87116,-2.1361 -1.23449,-4.43206 -1.08986,-6.88473 0,-0.23822 0,-0.554 0,-1.02966 -0.0727,-0.39572 -0.14463,-0.94894 -0.218,-1.50294 -0.58133,-0.79144 -1.81652,-1.66282 -3.77837,-2.5326 1.96185,0.87057 3.19704,1.74116 3.77837,2.5326 0.4367,0.39571 0.87193,0.79144 1.30786,1.2663 1.52662,1.89945 2.90645,4.59034 3.92371,8.15182 2.17985,-3.56148 2.90645,-7.28045 2.10719,-11.08015 0,-0.0791 0,-0.0791 -0.0734,-0.15749 -0.0726,-0.39572 -0.14527,-0.79144 -0.2899,-1.18716 -0.2906,-1.42538 -0.9453,-2.61254 -1.88989,-3.7997 -0.94459,-1.18715 -2.32518,-2.13609 -3.92295,-3.00747 1.59777,0.87138 2.97905,1.82032 3.92295,3.00747 0.94383,1.18716 1.59852,2.37432 1.88989,3.7997 0.14463,0.39572 0.21799,0.79144 0.2899,1.18716 0.0734,0.0791 0.0734,0.0791 0.0734,0.15749 2.46975,1.18716 4.86754,1.50374 7.26608,0.87138 2.68776,-1.26709 4.64955,-2.69089 5.73947,-4.35291 -1.67119,0.31578 -3.19635,0.31578 -4.50497,0.31578 -0.0727,-0.15749 -0.0727,-0.15749 -0.0727,0 -2.25245,-0.31578 -4.14164,-1.10722 -5.81283,-2.29438 -0.0727,-0.0799 -0.218,-0.23743 -0.29066,-0.31657 -0.0727,-0.0792 -0.0727,-0.0792 -0.14464,-0.0792 l 0,0 c -0.58196,-0.55401 -1.01719,-1.10801 -1.38052,-1.66281 -1.23526,-1.66203 -1.81652,-3.56147 -1.74386,-5.85586 l 0.14533,-0.31657 c 3.63305,1.02887 6.75743,3.87805 9.44588,8.54753 1.59859,-3.87725 -0.94459,-9.10154 -7.77469,-15.74883 2.76182,0.554 4.86831,1.58287 6.17617,3.2449 1.16329,-1.26631 1.30862,-2.6901 0.65393,-4.27298 -1.30786,-3.40398 -3.56038,-5.77829 -6.6121,-7.20289 3.19635,1.4246 6.32073,2.37432 9.44588,3.00747 0.87123,0.23823 1.74316,0.39572 2.68775,0.47566 5.01363,0.0791 8.13802,-1.66282 9.15598,-5.14436 -1.38053,0.47487 -2.68846,0.87059 -3.77832,1.18716 -0.0727,0 -0.14533,0 -0.218,0 -0.0734,0 -0.0734,0 -0.14533,0 -2.83378,0.55401 -5.01363,0.39572 -6.68482,-0.47565 -0.14533,-0.0791 -0.218,-0.23744 -0.36327,-0.23744 -3.05178,-1.66201 -5.0863,-4.03633 -6.1028,-7.20209 2.03452,-1.66281 4.28628,-2.05853 6.68407,-1.18715 2.97981,1.50294 5.08623,3.48154 6.17616,6.01493 1.38059,-3.87726 0.21876,-7.28124 -3.41435,-10.20877 -0.2187,-0.23822 -0.43669,-0.31658 -0.65393,-0.47565 -4.14164,-2.05774 -8.57401,-2.29439 -13.22425,-0.55401 4.86824,-2.21603 8.50128,-5.06442 10.89913,-8.4676 0.87193,-2.05854 0.65393,-3.7997 -0.58133,-5.30264 -2.68845,3.64062 -6.68476,5.85585 -11.91639,6.88552 -3.34238,0 -6.03083,-0.63395 -8.21068,-2.05854 4.35964,-1.18716 6.68482,-4.03633 6.97618,-8.3101 -0.21869,0.15828 -0.29066,0.31657 -0.43669,0.55401 -0.14533,0.15828 -0.2899,0.23743 -0.5086,0.47486 -2.03452,1.97859 -4.43237,3.00825 -7.26609,3.00825 -0.0727,0 -0.0727,0 -0.14463,0 -0.2187,0 -0.36327,0 -0.5086,0 -0.65399,-0.0799 -1.38059,-0.15828 -2.03452,-0.31657 -3.48847,-2.05774 -5.44956,-4.82778 -5.95823,-8.4684 2.10649,2.77004 4.94097,4.27377 8.28265,4.43286 2.03522,-0.23823 3.48848,-0.94973 4.28698,-2.13689 0.14533,-0.23744 0.29066,-0.47565 0.36333,-0.79144 -1.30793,0.15829 -2.54312,0 -3.70571,-0.39572 -4.65031,-1.58288 -8.42938,-7.20288 -11.55313,-16.70015 0,0 0,-0.15749 0,-0.23743 0,0 0,0 0,0.0799 0,0.0791 0,0.0791 0.0727,0.15749 2.54318,4.59114 5.81289,6.64809 9.5193,5.85665 -1.74385,-2.13688 -3.19705,-4.90692 -4.28697,-8.23097 -1.16259,-3.32324 -1.88919,-7.20209 -2.25246,-11.63335 -0.14533,-1.34545 -0.21799,-2.77004 -0.29066,-4.27377 l 0,-2.92832 c 0.43669,0.47565 0.87193,0.94972 1.38053,1.50373 0.58132,0.55401 1.16259,1.18715 1.74315,1.74117 5.44957,4.90612 12.20776,7.12294 20.34508,6.72723 0,0 0.14533,0 0.21869,0 0.14464,0 0.218,0 0.36333,0 0.0727,0 0.14457,0 0.14457,0 0.14533,0 0.29067,0 0.36333,0 9.6668,0.15591 18.24081,-3.24728 25.65223,-10.37022 8.50059,-7.99353 12.78832,-20.10176 12.86023,-36.08961 0.29066,-2.77004 1.23525,-4.35291 2.90644,-4.74864 1.30863,-0.23743 2.97982,0.23744 5.15967,1.66203 0.87193,-3.79891 -1.01726,-6.01493 -5.5949,-6.4898 l -0.0727,0 c -0.0734,-0.0792 -0.21869,-0.0792 -0.29066,-0.0792 -2.90638,0.55402 -5.01357,2.05775 -6.32149,4.51121 -0.218,0.39571 -0.43594,0.79144 -0.58127,1.2663 0.14533,-0.47486 0.36327,-0.87059 0.58127,-1.2663 1.30792,-2.45425 3.41511,-3.95719 6.32149,-4.51121 0.0727,-0.0791 0.218,-0.0791 0.29066,-0.0791 6.90283,-8.3101 9.59051,-14.16675 7.99269,-17.49159 -1.08986,-2.61174 -2.76182,-4.43205 -5.1596,-5.30263 3.26971,4.03712 1.96179,7.5986 -3.92301,10.60527 -5.3769,1.89946 -8.71928,6.64809 -9.95454,14.00847 -1.45319,-6.09408 -3.56038,-10.76436 -6.32149,-13.85018 -3.41505,-3.64141 -6.75749,-9.25983 -10.09987,-16.62021 -1.88919,-4.98606 -2.76112,-9.49727 -2.68776,-13.69189 0,-1.02887 0.14464,-1.9786 0.28997,-2.92832 l 0,-0.0791 c 0.5086,-2.69089 1.59852,-4.5112 3.26971,-5.69836 2.25322,-1.58287 4.94097,-1.58287 7.92002,-0.0791 1.16259,1.42459 1.08993,2.69089 -0.21793,3.7989 3.05102,-0.31657 4.28627,-1.66202 3.55961,-4.11548 -0.36326,-0.63315 -0.79926,-1.18715 -1.23519,-1.74116 -2.54318,-2.77004 -6.3208,-3.71976 -11.33513,-2.61175 -0.0727,0.0791 -0.14533,0.0791 -0.29066,0.0791 -0.14457,0.0792 -0.36327,0.23744 -0.5079,0.31658 -3.12515,1.42459 -4.94167,4.35291 -5.66827,8.70583 l 0,0 c -2.25251,-9.33898 -3.05101,-19.39025 -2.32442,-30.23296 0.43594,-5.7775 2.61579,-11.63415 6.68406,-17.41165 5.15967,-5.38179 9.37328,-8.07268 12.93442,-7.91439 3.48771,0.15829 6.75743,1.34544 9.95378,3.64062 3.12514,2.29517 4.43306,6.41065 4.06973,12.18815 -0.43669,3.71977 -2.54311,6.56894 -6.24952,8.62668 -0.218,0.0791 -0.28997,0.23744 -0.436,0.31658 -0.65393,0.31658 -1.45319,0.7123 -2.32512,1.02887 -0.36333,0.0791 -0.72659,0.23743 -1.08992,0.31658 -1.67119,0.554 -3.41505,-0.15829 -5.0863,-1.82031 -1.08987,-1.50374 -1.30787,-3.71976 -0.79927,-6.64809 -3.26971,4.03634 -3.48771,7.83525 -0.58126,11.31758 2.32442,2.84917 5.3762,3.32404 9.08261,1.66202 0.79926,-0.39572 1.67119,-0.87059 2.61578,-1.50374 -0.94459,0.63315 -1.81652,1.10802 -2.61578,1.50374 -4.06974,5.93579 -2.25322,9.49726 5.52223,10.36784 0.79926,0.0792 1.67119,0.15829 2.61579,0.15829 -5.8855,-0.79144 -7.33876,-2.92832 -4.35964,-6.25236 0.43669,-0.55401 0.94529,-1.10802 1.67195,-1.66203 0.5079,-0.47486 0.94459,-0.94972 1.52586,-1.34544 9.22794,-6.64809 12.64298,-15.27477 10.31786,-25.8009 -2.10718,-6.56894 -6.03089,-11.7133 -11.91639,-15.19563 -0.94459,-0.554 -1.96185,-1.02887 -3.05178,-1.66202 -2.10642,0 -4.06904,0.0791 -5.95746,0.31658 -1.74386,0.39572 -3.05178,1.02887 -4.06974,1.82031 1.01726,-0.79144 2.32512,-1.42459 4.06974,-1.82031 1.88918,-0.23743 3.85104,-0.31658 5.95746,-0.31658 1.23526,0.0791 2.54312,0.15829 3.85174,0.23743 3.05102,0.15829 5.66757,-0.94972 7.77399,-3.24489 3.56038,-4.27377 5.74023,-9.02241 6.46683,-14.32505 0.14533,-3.56068 -0.58127,-7.12215 -2.25246,-10.68363 z" id="path3707" style="fill:#ffffff;fill-opacity:1;stroke:#000000;stroke-width:1.60000002;stroke-miterlimit:4;stroke-opacity:1;stroke-dasharray:none" inkscape:connector-curvature="0"/>
        <path d="m 83.482815,188.8564 c -1.929264,0.95089 -2.40288,1.81899 -2.108679,3.79988 1.1477,2.11798 3.119169,3.96235 5.959603,5.47623 1.60857,3.3192 1.751724,5.93836 0.322297,7.86514 l -0.0452,0.0569 c 4.411675,2.21028 13.283864,14.79683 12.764404,-1.18184 -0.927036,-4.55243 -3.649946,-10.06411 -5.840263,-14.66086 -1.006983,-1.9134 -1.483268,-4.24041 -1.42887,-6.98104 -0.872745,-1.06442 -2.214216,-1.66601 -3.702915,-1.82777 -2.177208,3.82574 0.738674,6.41516 -5.920382,7.45335 z" id="path3723" style="fill:#ffffff;fill-opacity:1;stroke:#000000;stroke-width:1.60000002;stroke-miterlimit:4;stroke-opacity:1;stroke-dasharray:none" inkscape:connector-curvature="0"/>
        <path d="m 176.33403,180.70872 c -3.48772,1.74116 -8.86463,2.84917 -16.13072,3.48233 -0.21799,0.0791 -0.43597,0.0791 -0.58129,0.15828 l -0.0727,0 c -11.33511,1.66203 -19.83644,3.87805 -25.43134,6.80638 -1.45321,0.71229 -2.68845,1.42459 -3.7057,2.21602 0.14532,2.13689 0.94459,3.40319 2.47047,3.79891 0,0.0791 0,0.0791 0,0.0791 l 0,0 2.61579,-1.66202 0,-1.34544 0,1.34544 -2.61579,1.66202 0,0 c -0.29064,1.9786 -0.29064,3.71977 -0.0727,5.2235 2.25249,4.82778 5.66755,8.31011 10.24519,10.36785 0,0 0,0 0.0727,0 0,0 0,0 0.0727,0.0791 2.0345,-0.0791 3.99635,-0.0791 5.74021,0.0791 2.39781,0.15828 4.57764,0.47486 6.46682,0.87058 0,0 0,0 0.0727,0 1.88919,0.39572 3.48773,0.94972 4.94095,1.66202 2.54313,1.2663 4.6503,2.69089 6.24884,4.27377 0.79927,0.79144 1.45322,1.66202 2.0345,2.5326 1.74387,3.08661 1.81653,5.61922 0.0727,7.59781 -0.14533,0.0791 -0.21798,0.15829 -0.29064,0.23743 -1.01726,0.87059 -2.68846,1.50374 -5.23159,1.50374 -4.57765,0 -8.35601,-0.63315 -11.18979,-1.82031 -0.36331,-0.15829 -0.79927,-0.23743 -1.23523,-0.39572 -1.96185,-0.63315 -4.35966,-0.87058 -7.04812,-0.79144 -0.79927,0.0791 -1.74386,0.15829 -2.61579,0.23743 -1.3079,1.58288 -1.23524,3.16576 0.0727,4.74864 -1.52588,3.08661 -4.50498,3.95719 -8.86464,2.45346 1.59854,3.00746 3.56039,4.43205 6.03086,4.27376 2.17983,-0.31657 4.50498,-1.18715 6.68481,-2.92832 0.14532,-0.0791 0.29064,-0.15829 0.43596,-0.23743 -0.14532,0.0791 -0.29064,0.15829 -0.29064,0.39572 -2.25249,2.45346 -3.70571,4.74863 -4.35966,6.72723 0,0 0,0 0,0.0791 -0.0727,0 -0.0727,0 -0.0727,0.0791 -0.29065,1.02887 -0.43597,1.97859 -0.21799,2.84917 0.21799,-0.94972 0.65395,-1.8203 1.3079,-2.61174 1.88918,-2.29517 5.30425,-3.79891 10.24519,-4.35292 -0.21798,2.13689 -1.88918,4.35292 -4.86829,6.64809 5.81288,-0.87058 9.73658,-3.08661 11.84374,-6.4898 0.50863,3.40319 2.17983,5.14435 5.08627,5.38179 -0.94459,-2.53261 -0.65395,-4.66949 0.79927,-6.25237 2.10717,4.35291 5.66755,7.0438 10.82576,7.83524 -2.6158,-2.29517 -3.85104,-5.30264 -3.63305,-9.10154 2.25321,2.37431 4.14167,3.40318 5.74021,3.2449 -0.29064,-3.2449 0.65395,-6.17323 2.76111,-8.78497 0.72659,3.00746 3.77837,4.74863 9.15603,5.0652 -3.99637,-3.7989 -5.74023,-7.67695 -5.52299,-11.63414 0.29066,-4.03634 0.87193,-7.12295 1.67119,-9.33898 2.17985,0.31657 3.63304,2.21603 4.50504,5.93579 0.58126,-6.4898 -1.74316,-10.76357 -7.04816,-12.90045 1.52662,0.39572 3.05178,0.71229 4.50497,0.71229 0.9446,0 1.81653,0 2.76112,-0.15828 3.05178,-0.47487 4.72297,-3.32405 4.72297,-8.54754 0,-1.02887 0,-1.9786 -0.218,-2.77004 0,-0.0791 0,-0.0791 0,-0.0791 -0.5086,-2.37432 -1.81652,-3.9572 -3.85098,-4.82778 -0.0727,-0.0791 -0.21799,-0.0791 -0.29066,-0.0791 0,-0.0791 -0.14463,-0.0791 -0.14463,-0.0791 -0.43663,-0.15828 -0.79996,-0.23743 -1.30863,-0.31657 -0.36326,-0.0791 -0.79926,-0.0791 -1.23449,-0.15829 -2.54312,0.0791 -4.28698,0.79144 -5.15967,2.37432 0.87193,-1.58288 2.61655,-2.29518 5.15967,-2.37432 0.43599,0.0791 0.87123,0.0791 1.23449,0.15829 0.50867,0.0791 0.872,0.15829 1.30863,0.31657 0,0 0.14463,0 0.14463,0.0791 0.0734,0 0.2187,0 0.29066,0.0791 2.03446,0.87058 3.34238,2.45346 3.85098,4.82778 0,0 0,0 0,0.0791 0.218,0.79144 0.218,1.74117 0.218,2.77004 0,5.22349 -1.67119,8.07267 -4.72297,8.54754 -0.94459,0.15828 -1.81652,0.15828 -2.76112,0.15828 -1.45319,0 -2.97905,-0.31657 -4.50497,-0.71229 5.305,2.13688 7.62942,6.41065 7.04816,12.90045 -0.872,-3.71976 -2.32519,-5.61922 -4.50504,-5.93579 -0.79926,2.21603 -1.37983,5.30264 -1.67119,9.33898 -0.218,3.95719 1.52662,7.83524 5.52299,11.63414 -5.37696,-0.31657 -8.42944,-2.05774 -9.15603,-5.0652 -2.10643,2.61174 -3.05175,5.54007 -2.76111,8.78497 -1.59854,0.15828 -3.48772,-0.87059 -5.74021,-3.2449 -0.21799,3.7989 1.01725,6.80637 3.63305,9.10154 -5.15893,-0.79144 -8.71932,-3.48233 -10.82576,-7.83524 -1.45322,1.58288 -1.74386,3.71976 -0.79927,6.25237 -2.90644,-0.23744 -4.57764,-1.9786 -5.08627,-5.38179 -2.10716,3.40319 -6.03086,5.61922 -11.84374,6.4898 2.97911,-2.29517 4.65031,-4.5112 4.86829,-6.64809 -4.94094,0.55401 -8.35601,2.05775 -10.24519,4.35292 1.74386,1.02887 2.68845,2.13688 2.83377,3.2449 0.14533,1.34544 -0.43596,2.13688 -1.6712,2.45346 -1.01725,-0.39572 -2.03451,-0.7123 -3.05176,-0.94973 -3.7057,-0.94973 -7.33875,-1.02887 -10.9718,-0.39572 -0.14532,0 -0.21798,0 -0.29064,0.0791 -0.29065,0 -0.58129,0 -0.79927,0.0791 -3.56039,-1.58288 -5.30425,-4.27377 -5.52223,-8.07268 -3.05176,1.50374 -4.50498,3.71977 -4.06902,6.72723 1.96185,4.74863 5.66755,7.12295 11.26245,7.36038 0.0727,0 0.21798,0 0.3633,0 -0.14532,0 -0.29064,0 -0.3633,0 -7.48408,1.34545 -12.13438,4.90692 -13.9509,10.68442 -2.10717,3.79891 -5.15893,3.40319 -9.08262,-1.18715 0.21798,0.63315 0.58129,1.34544 0.87193,1.89945 1.01725,2.05774 2.17983,3.87805 3.41506,5.54007 0,0 0,0 0.0727,0 1.6712,2.13688 3.48773,3.87805 5.5949,5.38178 -0.0727,-2.92832 0.79927,-5.22349 2.61579,-6.96466 0.3633,-0.39572 0.72661,-0.71229 1.23524,-1.02887 -0.50863,0.31658 -0.87194,0.63315 -1.23524,1.02887 -1.81652,1.74117 -2.68846,4.03634 -2.61579,6.96466 -0.21799,3.08661 -1.45322,5.38179 -3.77837,6.96466 -2.32515,1.66203 -4.287,1.50374 -5.9582,-0.23743 -0.21798,-0.23743 -0.36331,-0.47486 -0.58129,-0.63315 -0.50863,-0.79144 -0.65395,-1.66202 -0.21798,-2.69089 l -2.03451,-0.79144 c -0.50862,0.63315 -0.87193,1.42459 -1.16257,2.37432 -0.21799,1.50373 -0.21799,2.84918 0,3.95719 0.3633,1.74117 1.23524,3.00747 2.54313,4.03634 0.50863,0.31658 1.08991,0.63315 1.81653,0.94972 0.87193,0.23743 1.74386,0.55401 2.54313,0.7123 0.14532,0.0791 0.3633,0.0791 0.50862,0.1575 0.36331,0.0799 0.79928,0.0799 1.23524,0.15829 0.9446,0.0799 1.88918,0.0799 2.83378,-0.0792 0.65395,-0.15828 1.38056,-0.31658 2.10716,-0.55401 0.14533,-0.0791 0.29065,-0.15829 0.43597,-0.15829 0.36331,-0.23743 0.65395,-0.47486 1.08992,-0.63315 0.87193,-0.554 1.81652,-1.2663 2.61579,-2.13688 1.16258,-1.2663 2.10717,-2.77004 2.9791,-4.66949 1.16257,-2.69089 2.61579,-4.43206 4.43232,-5.22349 -1.81653,0.79143 -3.26975,2.5326 -4.43232,5.22349 -0.87193,1.89945 -1.81652,3.40319 -2.9791,4.66949 -0.79927,0.87137 -1.74386,1.58288 -2.61579,2.13688 -0.43597,0.15829 -0.72661,0.39572 -1.08992,0.63315 -0.14532,0 -0.29064,0.0799 -0.43597,0.15829 l -0.14532,0.23743 c -0.65394,0.31658 -1.30789,0.55401 -1.88918,0.7123 -0.14532,0.0791 -0.29065,0.0791 -0.29065,0.0791 -0.94459,0.0799 -1.81652,0 -2.61579,-0.39571 -0.43596,-0.0792 -0.87193,-0.0792 -1.23524,-0.15829 -0.14532,-0.0791 -0.3633,-0.0791 -0.50862,-0.1575 0.0727,0.0791 0.0727,0.23743 0.14532,0.31579 0,0.15828 0.14532,0.39571 0.21798,0.554 0,0.0791 0.0727,0.23743 0.14532,0.31658 0,0.0791 0,0.15749 0.0727,0.23743 1.23523,2.29438 2.97909,3.71976 5.15892,4.27297 1.38056,-1.10721 2.76112,-2.13608 4.35966,-3.00746 1.3079,-0.79144 2.76112,-1.34545 4.28699,-1.89866 4.50498,-1.34545 7.33876,-4.11548 8.35602,-8.39004 -1.01726,4.27376 -3.85104,7.0438 -8.35602,8.39004 -1.52587,0.55321 -2.97909,1.10722 -4.28699,1.89866 -1.59854,0.87138 -2.9791,1.89945 -4.35966,3.00746 -1.59854,1.42539 -3.05175,3.08662 -4.43231,4.98686 -0.50863,0.7115 -0.9446,1.42459 -1.38056,2.13609 -0.87194,2.29517 -0.50863,4.19542 1.01725,5.46093 2.0345,-2.61175 4.43232,-4.5112 7.2661,-5.61922 1.52587,-0.63394 3.19708,-1.10801 4.94094,-1.34544 l 0.0727,0 c 3.26975,0.0791 6.10352,-0.63315 8.42867,-1.9786 l 5.5949,-4.27376 c -0.43597,1.26709 -0.87194,2.37431 -1.08992,3.48233 -0.0727,0.0791 -0.0727,0.0791 -0.0727,0.0791 -1.01726,3.87805 -0.87193,6.96466 0.3633,9.41812 2.32515,3.87726 5.44957,6.17323 9.3006,7.12295 0,0 0,0 -0.0727,-0.0799 -0.58129,-0.63315 -1.16257,-1.34465 -1.59854,-1.9786 -0.0727,-0.0791 -0.21798,-0.23743 -0.21798,-0.31578 -1.23524,-1.8203 -2.03451,-3.87805 -2.39781,-6.01572 0.58128,-4.43206 3.26974,-7.51867 7.92004,-9.41733 0.21798,-0.0799 0.43597,-0.15829 0.58129,-0.23744 -0.14532,0.0791 -0.36331,0.1575 -0.58129,0.23744 -0.58129,0.554 -1.08991,1.10722 -1.59854,1.74116 -2.68846,3.2449 -3.56038,6.48901 -2.61579,9.7347 0.0727,0.15829 0.0727,0.23743 0.14532,0.47486 0.21798,0.63315 0.50862,1.18716 0.87193,1.74117 1.08992,1.50373 2.61579,2.05774 4.72296,1.74116 -2.76112,-3.71976 -2.76112,-7.20288 0.14533,-10.60528 0.50862,-0.63315 1.01724,-1.2663 1.59853,-1.74116 1.45322,-1.26631 3.12442,-2.13609 5.08627,-2.6901 0.43597,2.5326 0.0727,5.06441 -1.16258,7.43873 -0.58128,1.02966 -1.23523,2.05853 -2.10716,3.00826 1.23523,-0.39572 2.47047,-0.87138 3.63305,-1.42538 4.72296,-2.29439 8.356,-5.85586 11.04446,-10.68443 0.0727,-0.15749 0.14532,-0.23743 0.14532,-0.39572 -0.0727,0.0799 -0.21798,0.0799 -0.21798,0.15829 -0.0727,0 -0.0727,0 -0.0727,0 -2.10716,0.7123 -4.14167,1.02887 -6.17617,0.7123 l -0.0727,0 c 0,0 0,0 0.0727,0 l 0,0 c 1.30789,-1.10802 2.3978,-2.29517 3.26974,-3.56147 0.14532,-0.15829 0.21798,-0.31658 0.3633,-0.47566 0.43597,-0.7115 0.79927,-1.42459 1.08992,-2.1361 0.58129,-1.34544 0.94459,-2.77003 1.08991,-4.27376 -0.14532,1.50373 -0.50862,2.92832 -1.08991,4.27376 -0.29065,0.71151 -0.65395,1.4246 -1.08992,2.1361 -0.14532,0.15829 -0.21798,0.31657 -0.3633,0.47566 -0.87194,1.2663 -1.96185,2.45345 -3.26974,3.56147 l 0,0 c -0.0727,0 -0.0727,0 -0.0727,0 l 0.0727,0 c 2.0345,0.31578 4.06901,0 6.17617,-0.7123 0,0 0,0 0.0727,0 0,-0.0791 0.14532,-0.0791 0.21798,-0.15829 1.3079,-0.55321 2.6158,-1.2663 3.92296,-2.21602 -0.14459,-1.42459 -0.21797,-2.77004 -0.0727,-4.19463 0.21799,-3.48233 1.45322,-6.4898 3.77837,-9.10154 -2.32515,2.61174 -3.56038,5.61921 -3.77837,9.10154 -0.14531,1.42459 -0.0727,2.77004 0.0727,4.19463 1.01726,3.32404 2.54314,5.85664 4.57837,7.67695 1.96115,1.82031 4.28627,2.84918 7.19272,3.16576 2.54312,0.15829 4.79633,-0.31658 6.68482,-1.4246 0.0726,-0.0799 0.21794,-0.15828 0.36327,-0.23743 l 0.0727,0 c 0,-0.0799 0.14533,-0.15828 0.21869,-0.23821 0.14464,-0.0791 0.436,-0.23744 0.5079,-0.31579 -0.21793,-0.0799 -0.5079,-0.15829 -0.79926,-0.23743 -3.34238,-0.63394 -6.1035,-2.37432 -8.57401,-5.38258 -1.38053,-1.97859 -1.2352,-3.95719 0.28996,-6.01493 l 0,0 0,0 c 0.87193,-1.10802 1.52662,-2.29517 2.17979,-3.56148 0.94536,-2.05774 1.59859,-4.27376 1.88995,-6.64808 -0.29066,2.37432 -0.94459,4.59034 -1.88995,6.64808 -0.65317,1.26631 -1.30786,2.45346 -2.17979,3.56148 3.56038,-0.87059 6.17617,-2.45346 7.99269,-4.66949 0.14533,-0.1575 0.29066,-0.39572 0.43669,-0.55322 0,0 0,0 0.0727,-0.0799 0.0734,-0.15829 0.218,-0.31578 0.29066,-0.47486 0,0 0,0 0.0727,0 l -0.0727,0 c 0.0727,-0.0799 0.0727,-0.0799 0.14527,-0.15829 1.23456,-1.89945 1.96116,-3.87805 2.25252,-6.09408 0.0727,-0.31658 0.0727,-0.55401 0.0727,-0.87058 0,-0.15829 0,-0.23743 0,-0.39572 l 0,0 c 0,-0.0792 0,-0.23743 0,-0.31658 0,-0.63315 0,-1.2663 -0.0727,-1.89945 -0.0727,0 -0.0727,0 0,0 -0.14533,-0.94973 -0.29067,-1.89945 -0.65393,-2.77004 0.36326,0.87059 0.5086,1.82031 0.65393,2.77004 -0.0727,0 -0.0727,0 0,0 0.0727,0.63315 0.0727,1.2663 0.0727,1.89945 0,0.0791 0,0.23743 0,0.31658 l 0,0 c 0,0.15829 0,0.23743 0,0.39572 0,0.31657 0,0.554 -0.0727,0.87058 -0.29067,2.21603 -1.01726,4.19463 -2.25252,6.09408 -0.0734,0.0791 -0.0734,0.0791 -0.0734,0.15829 -0.0727,0 -0.0727,0 -0.0727,0 -0.0734,0.15828 -0.218,0.31578 -0.29066,0.47486 -0.0726,0.0799 -0.0726,0.0799 -0.0726,0.0799 0.0726,0.0791 0.14527,0.0791 0.21794,0.0791 0.218,0.0791 0.43599,0.23743 0.65399,0.23743 1.2345,0.47566 2.61579,0.79144 3.99631,0.94973 2.76112,0.23743 5.5942,-0.15829 8.64592,-1.34545 3.12444,-0.87058 5.44963,-2.61175 6.75749,-5.14435 -2.17985,1.2663 -4.79564,1.74116 -7.70209,1.42459 -2.54311,-0.31658 -4.4323,-1.58288 -5.74016,-3.95719 l 0.14533,-0.0791 0.0734,0 -0.0712,0 c 0,0 0,0 -0.14533,0.0791 l 2.76181,-0.63316 -2.39848,0.55401 -0.14464,-0.55401 c 3.92301,-6.64808 6.8294,-6.41065 8.79201,0.55401 1.88919,-3.95719 1.52586,-7.99353 -1.16259,-12.10901 4.35964,3.08661 9.22718,4.27377 14.75018,3.56147 3.77837,-1.2663 6.24882,-3.32404 7.48408,-5.93579 -1.59858,1.26631 -4.1417,1.74117 -7.70208,1.50374 -4.35964,-0.47487 -8.21138,-1.9786 -11.33583,-4.66949 -0.14533,0 -0.218,-0.0791 -0.218,-0.15829 -2.32512,-1.9786 -4.28697,-4.43206 -5.95816,-7.43952 9.59121,-4.90692 12.20699,-3.32405 7.92002,4.66949 0,0.0791 0,0.0791 -0.0734,0.15828 4.50498,-2.61174 6.8301,-5.14435 6.8301,-7.59781 0,-2.45346 -2.47046,-5.93579 -7.41142,-10.2887 -2.68845,-0.79144 -4.21431,-2.45346 -4.72291,-5.06521 0.5086,2.61175 2.03446,4.27377 4.72291,5.06521 0.43669,0.0791 0.80002,0.23743 1.23525,0.23743 3.85105,0 6.61216,-1.58288 8.28335,-4.74863 -1.45319,0.79144 -2.76181,1.42459 -3.92371,1.66202 -0.0727,0 -0.0727,0 -0.0727,0.0791 0,0 -0.0734,0 -0.14527,0 -0.14533,0.0791 -0.29066,0.0791 -0.29066,0.15829 -1.23526,0.15829 -2.32519,0.0791 -3.19635,-0.23743 0,-0.0791 -0.0734,-0.0791 -0.14534,-0.0791 -2.61654,-1.58287 -4.35964,-3.95719 -4.94096,-7.36038 1.96115,-2.84917 4.6496,-1.34544 7.91932,4.59035 2.10718,-5.06521 0.94459,-8.94326 -3.55962,-11.87158 -2.61655,-1.66202 -4.6503,-3.32404 -6.17623,-5.06521 l -0.14533,-0.0791 c -0.14527,-0.15829 -0.21793,-0.31658 -0.36326,-0.47487 -0.4367,-0.554 -0.80003,-1.10801 -1.1633,-1.74116 0.36327,0.63315 0.7266,1.18716 1.1633,1.74116 0.14533,0.15829 0.21799,0.31658 0.36326,0.47487 l 0.14533,0.0791 c 1.2345,1.34545 2.68776,2.21603 4.35971,2.5326 0.5079,0.15829 1.08986,0.23744 1.59776,0.15829 1.67195,0 3.05178,-0.79144 4.21507,-2.21603 1.45326,-1.97859 1.81652,-3.95719 1.01656,-6.09407 -0.94459,2.45346 -2.54318,3.71976 -4.6496,3.7989 -1.67189,0.0791 -2.90645,-0.47486 -3.92371,-1.66202 -0.2906,-0.47486 -0.58127,-0.94973 -0.79926,-1.42459 -1.08993,-2.21603 -1.96186,-5.38178 -2.76182,-9.65555 -0.43599,-2.53261 -1.96115,-4.82778 -4.50427,-6.96466 3.92294,-0.55401 6.03089,-1.9786 6.32079,-4.35291 -1.88919,1.02887 -3.77767,1.42458 -5.73946,0.94972 -1.59859,-3.32404 -4.14171,-5.93579 -7.70285,-7.67695 -1.96109,-0.7123 -4.06898,-0.87059 -6.32073,-0.47487 -0.36333,0.0791 -0.80003,0.23743 -1.16329,0.23743 0.36326,0 0.79996,-0.15828 1.16329,-0.23743 23.77936,0.23989 -1.25775,-8.35013 -10.60852,-4.90533 z m 10.46318,18.67795 c -1.16329,0.63315 -2.25321,0.87058 -3.05178,0.79144 0.79927,0.0791 1.88919,-0.15829 3.05178,-0.79144 0.14534,-0.0791 0.218,-0.15829 0.28991,-0.15829 1.08992,-0.63315 2.17985,-1.50373 3.26977,-2.69089 -1.08992,1.18716 -2.17985,2.05774 -3.26977,2.69089 1.08992,0.79144 1.96185,1.66202 2.83378,2.92832 -0.29067,1.82031 -0.87193,3.00747 -1.96186,3.87805 1.08993,-0.87058 1.67119,-2.05774 1.96186,-3.87805 -0.87193,-1.2663 -1.74386,-2.13688 -2.83378,-2.92832 -0.0719,0 -0.14457,0.0791 -0.28991,0.15829 z m -26.15794,-6.96466 c 1.08991,0 2.03451,0.15829 3.05176,0.55401 0.14532,0.0791 0.36331,0.23743 0.58129,0.31657 2.61579,1.74117 4.86828,3.71976 6.75747,5.93579 l 2.83377,-1.18716 -2.13872,0.4301 -6.43526,1.5485 c -0.29065,0 -0.50863,0 -0.72662,0.0791 -0.72661,0.0791 -1.38056,0.0791 -2.0345,0 -0.3633,-0.0791 -0.79928,-0.0791 -1.16258,-0.0791 -1.45322,-0.7123 -2.25249,-1.82031 -2.39781,-3.40319 -0.21798,-1.50373 0.3633,-2.92832 1.6712,-4.19462 -0.21798,0 -0.58129,0 -0.87193,0 -0.65395,0.0791 -1.38055,0.15829 -2.10717,0.39572 0,-1.58288 0.79927,-2.84918 2.54314,-3.71976 -1.74387,0.87058 -2.54314,2.13688 -2.54314,3.71976 0.72662,-0.23743 1.45322,-0.31658 2.10717,-0.39572 0.29064,0 0.65395,0 0.87193,0 z m 15.18614,33.24042 c -0.43596,-1.89945 -1.08991,-3.7989 -2.03451,-5.7775 0.9446,1.9786 1.59855,3.87805 2.03451,5.7775 0.3633,3.00747 -1.3079,5.77751 -5.01288,8.15182 3.70498,-2.37431 5.37618,-5.14435 5.01288,-8.15182 z m -5.81288,-11.63414 c -1.88918,-2.13689 -4.14167,-3.64062 -6.6848,-4.74864 -2.17983,-0.79144 -4.35966,-0.94972 -6.68481,-0.554 2.32515,-0.39572 4.50498,-0.23744 6.68481,0.554 2.54313,1.10802 4.79562,2.61175 6.6848,4.74864 z" id="path3709" style="fill:#ffffff;fill-opacity:1;stroke:#000000;stroke-width:1.60000002;stroke-miterlimit:4;stroke-opacity:1;stroke-dasharray:none" inkscape:connector-curvature="0"/>
        <path d="m 164.56296,200.09896 c 0.21799,-0.0791 0.43597,-0.0791 0.72662,-0.0791 l 5.39269,-0.79144 c -1.88919,-2.21603 -3.79416,-4.19462 -6.40995,-5.93579 -5.95196,-4.3205 -9.0365,7.88499 0.29064,6.80637 z" id="path3713" style="fill:#ffffff;fill-opacity:1;stroke:#000000;stroke-width:1.60000002;stroke-miterlimit:4;stroke-opacity:1;stroke-dasharray:none" inkscape:connector-curvature="0"/>
        <path d="m 148.28691,218.61863 0.65395,-5.61921 c -1.74386,-0.15829 -3.70571,-0.15829 -5.74021,-0.0791 -0.0727,-0.0791 -0.0727,-0.0791 -0.0727,-0.0791 -0.0727,0 -0.0727,0 -0.0727,0 l 0,0.0791 0,0.0791 2.47047,5.93579 1.01726,1.66202 0,0 1.74386,-1.9786 z" id="path3715" style="fill:#ffffff;fill-opacity:1;stroke:#000000;stroke-width:1.60000002;stroke-miterlimit:4;stroke-opacity:1;stroke-dasharray:none" inkscape:connector-curvature="0"/>
        <path d="m 146.45461,221.78438 2.41359,4.51121 c 4.50498,-0.23744 9.00996,-0.15829 13.66026,0.31657 2.76112,0.23743 4.86828,1.34545 6.24884,3.32404 1.74386,-1.97859 1.6712,-4.5112 -0.0727,-7.59781 -0.58128,-0.87058 -1.23523,-1.74116 -2.0345,-2.5326 -3.05176,-0.79144 -6.10352,-1.18716 -9.08262,-1.18716 -2.90643,0.0791 -5.9582,0.0791 -9.3006,0 l -1.74386,1.9786 0,0 -1.01726,-1.66202 c -4.14167,0 -8.06536,0 -11.77107,-0.0791 -2.32515,-0.23743 -4.57764,-2.21603 -6.75747,-5.7775 -1.01725,1.34544 -1.38055,3.16575 -1.08991,5.22349 1.01725,3.48233 2.9791,5.69836 5.88554,6.56895 3.85103,1.34544 7.84738,1.97859 12.13438,1.8203 0.14531,-0.0791 0.29064,-0.0791 0.43596,-0.0791 l 2.09139,-4.82778 z" id="path3717" style="fill:#ffffff;fill-opacity:1;stroke:#000000;stroke-width:1.60000002;stroke-miterlimit:4;stroke-opacity:1;stroke-dasharray:none" inkscape:connector-curvature="0"/>
        <path d="m 148.8682,226.29559 -2.76112,-4.51121 -1.74386,4.82778 -0.58129,2.05774 c 2.68846,-0.0791 5.08627,0.15829 7.04812,0.79144 l -1.96185,-3.16575 z" id="path3719" style="fill:#ffffff;fill-opacity:1;stroke:#000000;stroke-width:1.60000002;stroke-miterlimit:4;stroke-opacity:1;stroke-dasharray:none" inkscape:connector-curvature="0"/>
        <path d="m 89.601081,182.13163 c -5.030809,-6.97134 -20.107617,-3.75293 -17.110553,6.06049 4.449771,-3.65724 8.023013,-2.77182 10.748263,1.12105 4.89111,1.66615 9.556034,-3.8412 6.36229,-7.18154 z" id="path3721" style="fill:#ffffff;fill-opacity:1;stroke:#000000;stroke-width:1.60000002;stroke-miterlimit:4;stroke-opacity:1;stroke-dasharray:none" inkscape:connector-curvature="0"/>
        <path d="m 91.481654,206.23681 c -3.147279,-3.84704 -5.021292,-12.23599 -11.016625,-12.13166 -1.724655,0.65233 -2.439026,1.44272 -2.352986,2.58721 -0.06255,0.037 -0.06255,0.037 -0.02225,0.10511 2.820143,2.35657 5.304552,7.5345 -0.127195,7.06368 -1.248772,-0.083 -1.589116,0.83744 -1.745651,2.04406 -0.02201,4.63585 3.037144,7.92339 7.146951,5.97694 -0.670212,0.54 -1.192821,1.15711 -1.894207,1.78052 -0.07224,0.008 -0.07224,0.008 -0.06373,0.0865 2.847453,2.00056 6.047378,2.53007 9.680528,1.65944 -3.63315,0.87063 -6.833075,0.34112 -9.680528,-1.65944 -0.0085,-0.0787 -0.0085,-0.0787 0.06373,-0.0865 -0.951993,-0.69307 -2.320391,-1.1819 -4.015948,-1.31691 -1.997173,0.45486 -3.599104,1.18538 -4.742064,2.10507 -0.590569,0.62112 -0.845483,0.96711 -0.811437,1.28186 -0.0467,0.24387 0.187034,0.3778 0.565254,0.4961 2.077923,-0.38399 3.654538,0.003 4.738342,1.23876 1.317766,2.72326 0.570268,5.27189 -2.340269,7.41765 -0.624403,1.65966 -0.398959,3.06817 0.51484,4.0838 1.474689,0.79575 2.826064,1.1272 4.037116,0.83698 1.321264,-1.97385 2.064617,-3.88518 2.374533,-5.74963 0.943693,1.96766 1.139457,3.77742 0.595802,5.50794 2.50306,0.84371 4.500233,0.38886 6.046729,-1.52975 0.263425,-0.26731 0.509827,-0.69199 0.756229,-1.11668 -0.246402,0.42469 -0.492804,0.84937 -0.756229,1.11668 -1.185299,1.87954 -1.847895,3.86175 -1.924068,5.86013 0.280448,-0.10994 0.569408,-0.1412 0.858367,-0.17245 2.991498,-0.72163 5.388279,-0.18483 6.939572,1.31908 l -0.02968,0.40123 -6.58231,0.63241 c 0.344606,2.51011 1.6962,4.19483 3.991062,5.14067 2.286344,0.86717 5.524462,1.07413 9.633608,0.55003 -4.109146,0.5241 -7.347264,0.31714 -9.633608,-0.55003 -3.245988,3.77417 -4.265204,7.86469 -3.138406,12.20072 0.649938,-1.42361 1.784387,-2.42198 3.27588,-2.82213 0.135972,-0.0943 0.280448,-0.10994 0.424924,-0.12557 0.06373,-0.0865 0.20821,-0.10213 0.280448,-0.10995 0.07224,-0.008 0.144483,-0.0156 0.144483,-0.0156 2.855533,-0.6273 7.02862,0.11537 12.510749,2.14934 -3.22918,2.57827 -7.291619,2.85849 -12.17029,0.99806 2.911615,4.6206 7.44175,5.96149 13.60743,4.18006 l 0.0978,0.22824 c -3.62027,1.66529 -6.42452,4.11799 -8.620956,7.4602 l 0.0085,0.0787 c -0.06373,0.0865 -0.12746,0.173 -0.12746,0.173 l 0.0085,0.0787 c 0.06373,-0.0865 0.208208,-0.10213 0.208208,-0.10213 l 0.07224,-0.008 c 4.308618,-2.05817 9.067918,-2.6526 14.477578,-1.96409 -5.75777,1.4985 -9.37804,3.16379 -10.91603,5.16109 -0.9007,1.1323 -1.06199,2.34383 -0.54758,3.72108 4.69099,-2.57718 10.27482,-2.30552 16.5985,0.7519 l -0.0552,0.16518 -0.10193,0.40906 c -5.41381,-0.0512 -8.29053,1.056 -8.7746,3.33732 0.57792,-0.0625 1.09211,-0.0385 1.67854,-0.0224 4.12201,0.27057 7.46227,1.42176 10.22898,3.35143 -2.74489,1.65021 -6.20824,1.388 -10.37304,-0.62926 1.48778,2.94369 3.76584,5.08543 6.80862,6.18919 0.67549,-1.18755 1.76322,-1.94205 3.26323,-2.26353 -0.009,-0.0787 -0.009,-0.0787 0.0722,-0.008 0.13596,-0.0943 0.35269,-0.11775 0.49717,-0.13338 -0.1997,0.18081 -0.39089,0.44031 -0.50983,0.69199 -0.0637,0.0865 -0.19969,0.18082 -0.19969,0.18082 -0.50983,0.69199 -0.86667,1.44704 -1.01529,2.09996 0.22523,0.0552 0.45045,0.11048 0.74793,0.15791 0.0807,0.0709 0.15299,0.0631 0.22523,0.0552 1.77631,0.20588 3.75231,0.23095 5.91949,-0.003 -2.63882,0.60388 -4.74642,1.3891 -6.38655,2.44217 0.23374,0.13393 0.40376,0.35436 0.64601,0.56697 1.84876,1.55133 3.81626,1.49772 5.94918,-0.40472 2.14144,-1.82375 3.12267,-4.23846 3.00745,-7.33061 -2.25667,-1.26839 -4.24991,-2.80411 -6.14123,-4.74887 -0.0722,0.008 -0.0722,0.008 -0.0722,0.008 -1.4068,-1.51954 -2.75841,-3.20427 -3.99105,-5.14067 -0.34854,-0.51954 -0.78634,-1.18864 -1.07115,-1.79467 4.3946,4.14175 7.47121,4.20698 9.15761,0.20349 1.18465,-5.93935 5.42497,-9.98029 12.72095,-12.12279 l 0,0 c -5.58799,0.36564 -9.52754,-1.59638 -11.9887,-6.10648 -0.75687,-2.94315 0.4496,-5.30261 3.32195,-7.12582 0.62526,3.75344 2.6484,6.24118 6.35837,7.43197 0.2082,-0.10212 0.49716,-0.13338 0.78612,-0.16464 l -0.64208,-2.55753 c -1.54715,-2.1412 -3.23876,-4.26678 -4.84112,-6.2428 -6.60499,-8.36056 -11.9473,-17.90704 -19.61035,-25.91433 -3.40834,-3.69753 -9.34542,-5.26437 -13.574814,-7.9106 -2.35837,0.49394 -6.224254,-1.45047 -8.438579,-3.67871 z" id="path3943" style="fill:#ffffff;fill-opacity:1;stroke:#000000;stroke-width:1.60000002;stroke-miterlimit:4;stroke-opacity:1;stroke-dasharray:none" inkscape:connector-curvature="0"/>
        <path d="m 77.867193,196.23301 c -8.65133,-0.52556 -11.874935,10.87141 -6.9619,16.052 0.147197,-4.86179 2.735806,-8.19443 8.049818,-7.57599 3.826163,-0.17937 2.682911,-7.01294 -1.087918,-8.47601 z" id="path3727" style="fill:#ffffff;fill-opacity:1;stroke:#000000;stroke-width:1.60000002;stroke-miterlimit:4;stroke-opacity:1;stroke-dasharray:none" inkscape:connector-curvature="0"/>
        <path d="m 75.043989,216.05714 c -8.175243,-0.043 -14.390296,14.186 -5.376906,17.01593 -0.913183,-3.85403 2.29599,-11.44268 6.830124,-8.15182 4.848937,-2.74765 4.499981,-8.90829 -1.453218,-8.86411 z" id="path3729" style="fill:#ffffff;fill-opacity:1;stroke:#000000;stroke-width:1.60000002;stroke-miterlimit:4;stroke-opacity:1;stroke-dasharray:none" inkscape:connector-curvature="0"/>
        <path d="m 105.34429,290.56041 c -1.30789,-1.02887 -2.17983,-2.29438 -2.54313,-4.03634 -0.79927,1.10722 -1.3079,2.45346 -1.52588,3.87726 -0.29064,2.92832 1.38056,4.59113 5.08626,5.22429 -2.0345,-1.9786 -2.32514,-3.64062 -1.01725,-5.06521 z" id="path3731" style="fill:#ffffff;fill-opacity:1;stroke:#000000;stroke-width:1.60000002;stroke-miterlimit:4;stroke-opacity:1;stroke-dasharray:none" inkscape:connector-curvature="0"/>
        <path d="m 73.515767,315.98719 c -3.668853,-8.40045 -22.683439,1.69005 -13.87824,10.92186 -0.23539,-3.73093 7.345882,-7.0328 7.193435,-2.13689 4.84475,-1.00735 8.415486,-3.57482 6.684805,-8.78497 z" id="path3735" style="fill:#ffffff;fill-opacity:1;stroke:#000000;stroke-width:1.60000002;stroke-miterlimit:4;stroke-opacity:1;stroke-dasharray:none" inkscape:connector-curvature="0"/>
        <path d="m 58.437795,337.98919 c -9.640313,2.03617 -10.252543,13.91728 -0.779175,20.00899 -2.36828,-5.61143 0.351673,-10.31436 5.907968,-11.92833 4.502755,-4.6943 -0.165574,-7.33088 -5.128793,-8.08066 z" id="path3737" style="fill:#ffffff;fill-opacity:1;stroke:#000000;stroke-width:1.60000002;stroke-miterlimit:4;stroke-opacity:1;stroke-dasharray:none" inkscape:connector-curvature="0"/>
        <path d="m 72.31896,357.24273 c 3.713283,-2.3203 10.806972,0.0351 8.635871,4.3183 -3.844721,11.2767 -21.122076,6.19231 -22.123605,-3.38579 4.138325,2.38971 12.525408,1.81905 13.487734,-0.93251 z" id="path3739" style="fill:#ffffff;fill-opacity:1;stroke:#000000;stroke-width:1.60000002;stroke-miterlimit:4;stroke-opacity:1;stroke-dasharray:none" inkscape:connector-curvature="0"/>
        <path d="m 110.86652,384.82076 c -0.50862,3.08582 -0.3633,5.54007 0.50863,7.20209 0.29065,0.55401 0.65395,0.94973 1.08992,1.34545 0.94459,0.79144 2.10716,1.18715 3.63304,1.2663 2.25249,0 5.15893,-0.63315 8.79198,-2.05774 -2.6158,2.37432 -5.08627,3.95719 -7.55674,4.66869 -0.43597,0.0799 -0.79927,0.23823 -1.16257,0.23823 -2.2525,0.39572 -4.35966,0 -6.39417,-0.94973 -1.01726,-0.47565 -2.03451,-1.18716 -2.9791,-1.89945 -0.29064,-0.31578 -0.58129,-0.71151 -1.01725,-0.94972 0.21798,0.39571 0.43596,0.79143 0.58128,1.18715 2.9791,6.33151 6.39417,8.39004 10.31786,6.25237 0,-0.0791 0,-0.0791 0,-0.15829 0.43596,-0.23743 0.79927,-0.47486 1.16257,-0.63316 0.14533,-0.0791 0.29065,-0.15828 0.50863,-0.23743 1.96185,-1.02887 4.06902,-1.34544 6.03086,-1.02887 -1.96184,-0.31657 -4.06901,0 -6.03086,1.02887 -0.21798,0.0791 -0.3633,0.15829 -0.50863,0.23743 -0.3633,0.1583 -0.72661,0.39573 -1.16257,0.63316 0,0.0799 0,0.0799 0,0.15829 -1.38056,4.82777 -5.52223,7.91438 -12.35236,9.25983 7.12077,2.92832 12.42502,1.2663 15.98541,-4.98606 l 0.29064,0.23743 c -0.36331,1.97859 -0.87193,3.87725 -1.59854,5.61921 -1.96185,4.98607 -5.37691,9.10155 -10.02721,12.50473 3.63304,0.63395 6.75746,0.15829 9.15528,-1.34465 2.54313,-1.58288 4.50498,-4.35291 5.66755,-8.23096 -0.14532,4.90691 -1.52588,8.86411 -4.06901,11.95072 0.58129,1.02966 1.23523,2.05853 2.03451,2.92832 0.79927,0.87138 1.6712,1.66282 2.54313,2.37432 1.96185,1.50374 4.21433,2.61175 6.83013,3.48233 -3.26975,0.23744 -5.66756,0 -7.04812,-1.02887 -0.3633,-0.23822 -0.58128,-0.47565 -0.79927,-0.63394 -0.0727,0 -0.0727,0 -0.0727,0 -0.43596,-0.31578 -0.7266,-0.55322 -0.79926,-0.63315 -1.08992,-0.47486 -1.81653,-0.7115 -2.17984,-0.87059 -0.3633,-0.0799 -0.72661,-0.15828 -1.23523,-0.15828 -1.45322,-0.0791 -3.63305,0.23743 -6.61214,0.94972 -3.85103,1.82032 -8.35601,3.00747 -13.732925,3.48154 -1.235239,-0.0791 -2.325152,-0.39572 -3.342406,-0.94893 -1.017254,-0.55401 -1.961841,-1.34545 -2.833776,-2.37432 -0.217985,-3.40397 -1.089913,-7.20289 -2.688456,-11.23843 -0.871928,-0.71229 -2.179827,-0.94973 -3.923689,-0.79144 -0.799269,-0.15829 -1.235239,0.0791 -1.453218,0.87058 0,0.0799 0,0.0799 0,0.15829 0,0 0,0 0,0.0791 3.051761,5.06522 2.543131,7.36118 -1.743862,6.96546 -1.017254,0.0791 -2.688457,0.39572 -4.940949,1.02887 -2.325146,1.2663 -2.979095,2.6901 -2.034501,4.27297 l 0.217979,0.23823 c 0.145325,0.1575 0.217985,0.39572 0.363304,0.63315 0.07266,0.0791 0.07266,0.0791 0.145326,0.15829 1.017253,1.50294 2.54313,2.6901 4.432318,3.56147 2.906436,1.10722 6.757465,1.42459 11.625748,0.79144 -2.761116,2.29438 -6.90279,2.84918 -12.570342,1.50294 -1.671202,-0.63315 -3.70571,-1.66202 -6.030862,-3.16575 l -1.380558,1.42459 c 2.325152,2.77003 3.560391,5.46093 3.85103,8.07267 -0.290639,1.82032 -1.307893,3.40319 -3.051755,4.82857 0,0.15749 0,0.23743 -0.07267,0.31579 -0.581283,1.58287 -0.145319,2.77003 1.162579,3.48233 l 3.633044,-0.0799 c 2.107167,-1.34466 3.124421,-3.16576 3.197087,-5.46013 0.07266,2.29437 0.581283,3.56147 1.380558,3.87725 1.816522,0.39572 3.487725,0.15829 5.013602,-0.39572 1.380558,-0.7115 2.761116,-0.79143 4.069015,-0.39572 2.107167,-1.18715 3.342399,-2.53181 3.851029,-4.27297 -0.50863,1.74116 -1.743862,3.08582 -3.851029,4.27297 -1.307899,-0.39571 -2.688457,-0.31578 -4.069015,0.39572 -0.435964,0.15829 -0.871928,0.47566 -1.307898,0.79144 l -3.633044,3.32404 1.380558,1.89946 c 0,0 0,0 0.07266,0 3.19708,0.94973 5.594892,2.6901 7.120776,5.22349 0.435964,1.10801 0.363304,1.89946 -0.363311,2.37432 -0.07266,0.0799 -0.07266,0.0799 -0.07266,0.0799 -0.217979,1.10721 0.363305,1.74037 1.816529,2.05774 1.598537,0.71229 2.979095,0.87057 4.069008,0.0791 2.470471,-1.74037 3.851036,-4.19463 4.141676,-7.28044 -1.235234,-2.05853 -0.50862,-4.66949 2.32515,-7.91439 -2.83377,3.2449 -3.560384,5.85586 -2.32515,7.91439 0.50863,0.87057 1.45322,2.37431 2.68846,4.5104 2.0345,-3.87726 3.92369,-6.41065 5.74021,-7.51866 -1.81652,2.77003 -2.47047,5.54007 -2.0345,8.3101 0,0 0,0 0,0.0799 l 0,-0.0799 c 3.41506,-3.87726 7.48407,-6.01493 12.35235,-6.489 -1.52587,4.74863 -5.30424,7.91439 -11.26244,9.65476 -0.0727,0 -0.0727,0 -0.14532,0.0799 1.23523,3.56147 4.287,4.74863 9.3006,3.64062 3.63305,-1.50294 6.03086,-4.03634 7.33876,-7.43873 l 0.3633,0.0791 c 0.21798,-2.13689 1.30789,-3.95719 3.05176,-5.46092 -1.74387,1.50373 -2.83378,3.32403 -3.05176,5.46092 -0.0727,0.31658 -0.14532,0.55401 -0.14532,0.87058 -0.58129,7.99433 3.63305,11.79244 12.57034,11.5558 0.14532,0 0.21798,0 0.43597,0 -0.14533,-0.0799 -0.21799,-0.0799 -0.21799,-0.0799 -0.0727,-0.15749 -0.14532,-0.15749 -0.21798,-0.15749 -3.26974,-1.66281 -4.94094,-4.5112 -4.72296,-8.39004 l 0,-0.15829 c -0.0727,-2.21603 1.16257,-4.74864 3.77837,-7.59781 2.76112,4.03633 4.28699,8.38925 4.6503,12.97959 3.19708,-5.22429 4.35966,-11.08014 3.70571,-17.56993 0.0727,0.23743 0.0727,0.39571 0.14532,0.554 0,0.1575 0,0.23743 0.0727,0.39572 0.21798,0.94893 0.50863,1.97859 0.87193,2.92753 2.54313,6.56973 7.70206,9.89299 15.40413,9.81385 -4.50498,-3.2449 -7.70207,-7.59782 -9.59125,-12.9796 -0.43596,-0.47486 -0.87194,-1.10723 -1.3079,-1.74038 0.43596,0.63315 0.87194,1.26631 1.3079,1.74038 2.76112,3.24569 6.39416,4.90691 10.82648,5.14435 1.16258,-0.0791 2.25249,-0.31578 3.26974,-0.71151 1.81653,-0.87137 3.26974,-2.29517 4.35966,-4.27376 l -0.1446,-0.15829 0.28992,-0.39572 c -0.28992,0.23822 -0.65395,0.47565 -0.94459,0.63394 -1.81652,1.18716 -3.41507,1.74037 -4.65031,1.58288 -4.65029,-0.71229 -7.26609,-3.95719 -7.84737,-9.49727 0.3633,-4.43284 2.25248,-8.15261 5.52223,-11.16007 0.72661,-0.71151 1.45322,-1.34545 2.32514,-1.89867 l 0,-0.15828 0.0727,-0.0799 c 0.36331,-3.2449 1.08991,-6.80637 2.32515,-10.68442 -0.50863,0.94972 -1.16258,1.89945 -1.88919,2.77004 -0.0726,0.0799 -0.14531,0.23822 -0.21798,0.31657 -0.0727,0.15829 -0.21798,0.23743 -0.29065,0.39572 -1.52587,1.58288 -3.34239,3.00747 -5.52222,4.19462 -0.0727,0.0799 -0.21799,0.0799 -0.29065,0.0799 -4.21433,1.34465 -8.50133,1.10722 -12.57034,-0.55401 -2.17983,-1.42459 -3.85103,-3.6414 -5.01361,-6.72723 -0.0727,-0.31657 -0.21798,-0.554 -0.29064,-0.87137 -0.65395,-2.45346 -0.29065,-5.2235 1.01725,-8.23017 1.88918,-2.29517 4.287,-3.7989 7.19344,-4.43285 -2.76112,3.00826 -3.85103,6.09408 -3.34241,9.18148 0.14533,0.63315 0.29065,1.34545 0.58129,1.82031 0.72661,1.74117 1.96184,2.92833 3.77837,3.64062 1.59854,0.55401 3.48773,0.55401 5.52223,0 2.32515,-0.63315 3.99635,-1.58288 5.15893,-2.6901 1.16257,-1.18716 1.6712,-2.61175 1.59854,-4.27377 0.0727,-3.08582 0.21798,-6.96466 0.50863,-11.47586 0.50862,-4.43206 1.81652,-8.94326 3.99635,-13.37452 2.17983,-3.87806 5.23158,-7.75689 9.37326,-11.63416 0.21798,-0.23743 0.28992,-0.39571 0.43597,-0.554 1.23523,-1.58288 1.96181,-3.40319 2.17981,-5.30264 0.218,-2.05774 -0.218,-4.27298 -1.23522,-6.72723 -0.21798,-1.74116 -0.28992,-3.48154 -0.28992,-5.14435 l -0.50863,-1.2663 c -9.08261,0.7115 -16.56669,3.95719 -22.45223,9.65555 -2.54313,-0.31658 -5.0136,-0.55401 -7.55673,-0.71229 -4.72297,0 -8.9373,1.2663 -12.42503,3.7989 -3.77837,4.82857 -7.04811,7.83524 -9.95455,9.0224 -0.29064,0.0791 -0.50863,0.23743 -0.79927,0.31579 -2.54313,0.79144 -4.79562,0.15828 -6.61214,-1.74038 -2.03451,-2.05853 -1.38056,-4.90692 2.10717,-8.46839 -4.79636,-0.16225 -7.63013,1.89549 -8.64739,6.09012 z" id="path3741" style="fill:#ffffff;fill-opacity:1;stroke:#000000;stroke-width:1.60000002;stroke-miterlimit:4;stroke-opacity:1;stroke-dasharray:none" inkscape:connector-curvature="0"/>
        <path d="m 193.91797,293.2513 c 0.79926,-1.58288 1.74386,-3.08661 2.83378,-4.5112 -1.38052,-0.15829 -2.76181,-0.47486 -3.99637,-0.94973 l -1.30862,0.23743 c -1.81653,2.21682 -4.43231,3.7997 -7.99269,4.66949 -1.52586,2.05774 -1.67119,4.03634 -0.2899,6.01494 2.46975,3.00826 5.23157,4.74863 8.57401,5.38257 0.0727,-3.56226 0.7266,-7.20288 2.17979,-10.8435 z" id="path3743" style="fill:#ffffff;fill-opacity:1;stroke:#000000;stroke-width:1.60000002;stroke-miterlimit:4;stroke-opacity:1;stroke-dasharray:none" inkscape:connector-curvature="0"/>
        <path d="m 170.4485,352.0552 c -0.87193,0.39572 -1.45322,0.87058 -2.10717,1.42459 -1.08991,0.87137 -1.81652,2.37431 -2.17983,4.5112 6.39417,0.15828 10.24592,3.00747 11.55309,8.62668 0.0727,0.0791 0.0727,0.0791 0.0727,0.23743 0.21798,-2.69089 0.87193,-5.06521 2.03453,-7.36038 -0.0727,-0.0799 0,-0.15829 0.0734,-0.15829 -1.88991,-3.48233 -4.06974,-6.09407 -6.75747,-7.99432 -1.01798,0.15908 -1.88991,0.39651 -2.68918,0.71309 z" id="path3747" style="fill:#ffffff;fill-opacity:1;stroke:#000000;stroke-width:1.60000002;stroke-miterlimit:4;stroke-opacity:1;stroke-dasharray:none" inkscape:connector-curvature="0"/>
        <path d="m 175.38945,487.39121 c -1.88919,0.47487 -3.56039,1.34545 -5.01361,2.6909 -1.59854,1.66202 -2.68846,3.48154 -3.19636,5.54007 -0.58128,2.61175 -0.58128,5.14435 -0.14532,7.51866 0.87193,2.77004 2.83378,4.6687 5.9582,5.77751 -1.23523,-2.21603 -1.59854,-4.59035 -1.23523,-7.43952 1.23523,-3.00747 3.12442,-5.06442 5.74021,-6.01494 0.0727,-0.15829 0.14459,-0.23743 0.21798,-0.39572 0.50863,-1.50373 0.65322,-3.00746 0.28992,-4.66949 -0.50863,-1.58287 -1.38056,-2.61174 -2.61579,-3.00747 z" id="path3749" style="fill:#ffffff;fill-opacity:1;stroke:#000000;stroke-width:1.60000002;stroke-miterlimit:4;stroke-opacity:1;stroke-dasharray:none" inkscape:connector-curvature="0"/>
        <path d="m 192.02878,501.00396 c -1.23519,-0.0799 -2.54312,0.0791 -3.77837,0.47487 -0.7266,0.23743 -1.30786,0.47565 -2.03446,0.87137 -0.218,3.08582 0.0727,6.09329 1.0172,9.02161 0.80002,1.82031 1.88995,3.32404 3.26977,4.35292 2.39779,0.94972 4.21431,1.108 5.52294,0.39571 1.52592,-0.63315 2.61584,-1.34544 3.41434,-2.05774 -2.17979,0.23743 -3.85104,-0.39572 -5.08623,-1.74117 -1.52592,-2.05773 -1.67119,-4.11548 -0.5079,-6.17322 l 1.16253,-1.26709 0.50866,-0.39572 c -0.87269,-1.34466 -1.96256,-2.53181 -3.48848,-3.48154 z" id="path3751" style="fill:#ffffff;fill-opacity:1;stroke:#000000;stroke-width:1.60000002;stroke-miterlimit:4;stroke-opacity:1;stroke-dasharray:none" inkscape:connector-curvature="0"/>
        <path d="m 220.43921,495.14731 c -0.79927,-1.02887 -1.67119,-1.58287 -2.54312,-1.58287 -1.38053,0 -2.76112,0.554 -3.99631,1.50373 -1.30793,1.34544 -1.81659,2.92833 -1.45326,4.6687 1.30793,0.39572 2.10719,1.10801 2.39779,2.21682 0.43669,1.18715 0.58133,2.29438 0.218,3.2449 -0.79927,1.82031 -2.32443,2.69089 -4.72297,2.61175 0.50866,1.8203 2.10718,2.77003 4.72297,3.00746 3.77837,-0.63315 5.66832,-2.29438 5.81289,-5.14435 0.36333,-3.40318 0.29067,-6.88472 -0.36333,-10.36785 0,-0.0791 0,-0.0791 -0.0727,-0.15829 z" id="path3753" style="fill:#ffffff;fill-opacity:1;stroke:#000000;stroke-width:1.60000002;stroke-miterlimit:4;stroke-opacity:1;stroke-dasharray:none" inkscape:connector-curvature="0"/>
        <path d="m 77.733129,429.77447 c 2.252492,-0.63314 3.923695,-0.94972 4.940949,-1.02886 4.286993,0.39572 4.795623,-1.89945 1.743862,-6.96545 -0.07266,-0.0792 -0.07266,-0.0792 -0.145326,-0.1575 -0.07266,0 -0.07266,-0.15829 -0.07266,-0.15829 -1.961841,-1.74116 -4.432319,-2.5326 -7.266095,-2.29517 -4.214334,0.39572 -7.120769,1.58288 -8.719312,3.40318 -1.961848,2.13689 -2.761116,4.27378 -2.252493,6.41145 2.833782,-2.29517 6.030863,-3.40319 9.518588,-3.40319 2.252486,1.18716 2.906435,2.6901 1.889181,4.35292 l 1.08992,-0.47566 c -0.290645,0.0791 -0.50863,0.23743 -0.726615,0.31657 z" id="path3755" style="fill:#ffffff;fill-opacity:1;stroke:#000000;stroke-width:1.60000002;stroke-miterlimit:4;stroke-opacity:1;stroke-dasharray:none" inkscape:connector-curvature="0"/>
        <path d="m 72.501541,439.1926 c -4.069008,1.34544 -6.757464,4.11548 -8.138023,8.07267 -0.50863,3.48233 -0.290644,6.4898 0.58129,9.02241 1.525877,2.77003 3.633044,4.11548 6.176175,4.19462 -1.162573,-1.50374 -1.671196,-3.40318 -1.380558,-5.85665 0.653949,-1.58287 1.816529,-2.37432 3.487725,-2.21602 0.07267,-0.0791 0.07267,-0.1583 0.07267,-0.31579 1.743862,-1.42538 2.761116,-3.00825 3.051755,-4.82857 -0.290639,-2.61174 -1.525878,-5.30264 -3.85103,-8.07267 z" id="path3757" style="fill:#ffffff;fill-opacity:1;stroke:#000000;stroke-width:1.60000002;stroke-miterlimit:4;stroke-opacity:1;stroke-dasharray:none" inkscape:connector-curvature="0"/>
        <path d="m 84.127295,459.84915 c -0.07266,0 -0.07266,0 -0.07266,0 -2.470472,3.2449 -3.70571,6.88551 -3.77837,11.0002 0.508624,5.9358 3.70571,8.07268 9.663906,6.33151 -2.543137,-1.74037 -3.63305,-4.27297 -3.19708,-7.51867 0.871928,-1.97859 2.179827,-2.77003 3.996349,-2.13608 0.07266,0 0.07266,0 0.07266,0 0,-0.0799 0,-0.0799 0.07266,-0.0799 0.726615,-0.47486 0.799275,-1.26631 0.363311,-2.37432 -1.525884,-2.53181 -3.923696,-4.27297 -7.120776,-5.2227 z" id="path3759" style="fill:#ffffff;fill-opacity:1;stroke:#000000;stroke-width:1.60000002;stroke-miterlimit:4;stroke-opacity:1;stroke-dasharray:none" inkscape:connector-curvature="0"/>
        <path d="m 272.60981,263.33492 -0.0727,0.23743 0.0727,-0.23743 0,0 z" id="path3761" style="fill:#ffffff;fill-opacity:1;stroke:#000000;stroke-width:1.60000002;stroke-miterlimit:4;stroke-opacity:1;stroke-dasharray:none" inkscape:connector-curvature="0"/>
      </g>
      <g transform="matrix(0.15273709,0,0,0.15273747,-249.9105,-289.75692)" id="g9168" style="stroke:#000000;stroke-width:15;stroke-miterlimit:4;stroke-opacity:1;stroke-dasharray:none">
        <path d="m 407.02914,608.69929 c 1.42457,-61.95601 16.75116,-119.53947 45.28957,-174.1086 74.71442,-157.1858 302.92034,-153.43174 252.61522,38.81131 -18.53686,70.83937 -81.50861,112.47386 -156.31886,119.61501 5.39959,-18.66537 35.10029,-84.65245 11.12447,-97.56156 -38.33816,1.4484 -85.94434,67.7051 -97.39282,99.30072 -1.6527,4.5361 -1.19041,9.77801 -3.03584,14.24007" id="path9170" style="fill:#fcef3c;fill-opacity:1;fill-rule:evenodd;stroke:#000000;stroke-width:15;stroke-linecap:butt;stroke-linejoin:miter;stroke-miterlimit:4;stroke-opacity:1;stroke-dasharray:none;display:inline" inkscape:connector-curvature="0"/>
        <g transform="translate(-38.5322,-48.5769)" id="g9172" style="stroke:#000000;stroke-width:15;stroke-miterlimit:4;stroke-opacity:1;stroke-dasharray:none;display:inline">
          <g transform="translate(0,4)" id="g9174" style="fill:#fcef3c;fill-opacity:1;stroke:#000000;stroke-width:15;stroke-miterlimit:4;stroke-opacity:1;stroke-dasharray:none">
            <path d="M 350.52292,657.37224 C 349.09835,595.41623 333.77176,537.83277 305.23335,483.26364 230.51893,326.07784 2.3130139,329.8319 52.618133,522.07495 71.154997,592.91432 134.12674,634.54881 208.93699,641.68996 203.5374,623.02459 173.8367,557.03751 197.81252,544.1284 c 38.33816,1.4484 85.94434,67.7051 97.39282,99.30072 1.6527,4.5361 1.19041,9.77801 3.03584,14.24007" id="path9176" style="fill:#fcef3c;fill-opacity:1;fill-rule:evenodd;stroke:#000000;stroke-width:15;stroke-linecap:butt;stroke-linejoin:miter;stroke-miterlimit:4;stroke-opacity:1;stroke-dasharray:none" inkscape:connector-curvature="0"/>
            <path d="m 393.6259,57.12017 c -78.7143,84.84944 -131.56461,182.96158 -108.78125,298.03125 12.56957,63.48391 43.04182,122.27973 64.53125,183.4375 13.43648,38.36985 16.87223,78.45173 15.28125,118.78125 l 66.78125,0 c -3.19651,-40.62617 3.80671,-79.99824 15.28125,-118.78125 20.47419,-61.5383 51.62579,-119.90553 64.53125,-183.4375 C 535.37892,236.37223 478.74399,146.7919 402.8134,57.49517 l -4.64043,-5.918268 -4.54707,5.543268 z" id="path9178" style="fill:#fcef3c;fill-opacity:1;fill-rule:nonzero;stroke:#000000;stroke-width:15;stroke-linecap:butt;stroke-linejoin:miter;stroke-miterlimit:4;stroke-opacity:1;stroke-dasharray:none" inkscape:connector-curvature="0"/>
            <path d="m 331.34465,704.40142 c -13.96166,39.13002 -70.88818,110.79207 -101.125,131.21875 -7.84217,5.29785 37.48637,-3.05157 57.78125,-7.5 26.61901,-5.83464 61.21745,-34.19759 60.40625,-24.1875 -0.0756,45.83826 12.81104,122.32424 46.40625,157.46875 l 3.18208,3.3876 3.28667,-3.3876 c 33.57769,-39.17095 46.23761,-108.04198 46.40625,-157.46875 -0.8112,-10.01009 33.78725,18.35286 60.40625,24.1875 20.29488,4.44843 65.62342,12.79785 57.78125,7.5 -30.23682,-20.42668 -87.13207,-92.08873 -101.09375,-131.21875 l -133.4375,0 z" id="path9180" style="fill:#fcef3c;fill-opacity:1;fill-rule:evenodd;stroke:#000000;stroke-width:15;stroke-linecap:butt;stroke-linejoin:miter;stroke-miterlimit:4;stroke-opacity:1;stroke-dasharray:none" inkscape:connector-curvature="0"/>
            <rect width="317.88773" height="51.503345" x="239.3521" y="655.37946" id="rect9182" style="fill:#fcef3c;fill-opacity:1;stroke:#000000;stroke-width:15;stroke-miterlimit:4;stroke-opacity:1;stroke-dasharray:none"/>
          </g>
        </g>
      </g>
      <g transform="matrix(0.15273709,0,0,0.15273709,140.0895,-289.75658)" id="g4192" style="stroke:#000000;stroke-width:15;stroke-miterlimit:4;stroke-opacity:1;stroke-dasharray:none">
        <path d="m 407.02914,608.69929 c 1.42457,-61.95601 16.75116,-119.53947 45.28957,-174.1086 74.71442,-157.1858 302.92034,-153.43174 252.61522,38.81131 -18.53686,70.83937 -81.50861,112.47386 -156.31886,119.61501 5.39959,-18.66537 35.10029,-84.65245 11.12447,-97.56156 -38.33816,1.4484 -85.94434,67.7051 -97.39282,99.30072 -1.6527,4.5361 -1.19041,9.77801 -3.03584,14.24007" id="path4194" style="fill:#fcef3c;fill-opacity:1;fill-rule:evenodd;stroke:#000000;stroke-width:15;stroke-linecap:butt;stroke-linejoin:miter;stroke-miterlimit:4;stroke-opacity:1;stroke-dasharray:none;display:inline" inkscape:connector-curvature="0"/>
        <g transform="translate(-38.5322,-48.5769)" id="g4196" style="stroke:#000000;stroke-width:15;stroke-miterlimit:4;stroke-opacity:1;stroke-dasharray:none;display:inline">
          <g transform="translate(0,4)" id="g4198" style="fill:#fcef3c;fill-opacity:1;stroke:#000000;stroke-width:15;stroke-miterlimit:4;stroke-opacity:1;stroke-dasharray:none">
            <path d="M 350.52292,657.37224 C 349.09835,595.41623 333.77176,537.83277 305.23335,483.26364 230.51893,326.07784 2.3130139,329.8319 52.618133,522.07495 71.154997,592.91432 134.12674,634.54881 208.93699,641.68996 203.5374,623.02459 173.8367,557.03751 197.81252,544.1284 c 38.33816,1.4484 85.94434,67.7051 97.39282,99.30072 1.6527,4.5361 1.19041,9.77801 3.03584,14.24007" id="path4200" style="fill:#fcef3c;fill-opacity:1;fill-rule:evenodd;stroke:#000000;stroke-width:15;stroke-linecap:butt;stroke-linejoin:miter;stroke-miterlimit:4;stroke-opacity:1;stroke-dasharray:none" inkscape:connector-curvature="0"/>
            <path d="m 393.6259,57.12017 c -78.7143,84.84944 -131.56461,182.96158 -108.78125,298.03125 12.56957,63.48391 43.04182,122.27973 64.53125,183.4375 13.43648,38.36985 16.87223,78.45173 15.28125,118.78125 l 66.78125,0 c -3.19651,-40.62617 3.80671,-79.99824 15.28125,-118.78125 20.47419,-61.5383 51.62579,-119.90553 64.53125,-183.4375 C 535.37892,236.37223 478.74399,146.7919 402.8134,57.49517 l -4.64043,-5.918268 -4.54707,5.543268 z" id="path4202" style="fill:#fcef3c;fill-opacity:1;fill-rule:nonzero;stroke:#000000;stroke-width:15;stroke-linecap:butt;stroke-linejoin:miter;stroke-miterlimit:4;stroke-opacity:1;stroke-dasharray:none" inkscape:connector-curvature="0"/>
            <path d="m 331.34465,704.40142 c -13.96166,39.13002 -70.88818,110.79207 -101.125,131.21875 -7.84217,5.29785 37.48637,-3.05157 57.78125,-7.5 26.61901,-5.83464 61.21745,-34.19759 60.40625,-24.1875 -0.0756,45.83826 12.81104,122.32424 46.40625,157.46875 l 3.18208,3.3876 3.28667,-3.3876 c 33.57769,-39.17095 46.23761,-108.04198 46.40625,-157.46875 -0.8112,-10.01009 33.78725,18.35286 60.40625,24.1875 20.29488,4.44843 65.62342,12.79785 57.78125,7.5 -30.23682,-20.42668 -87.13207,-92.08873 -101.09375,-131.21875 l -133.4375,0 z" id="path4204" style="fill:#fcef3c;fill-opacity:1;fill-rule:evenodd;stroke:#000000;stroke-width:15;stroke-linecap:butt;stroke-linejoin:miter;stroke-miterlimit:4;stroke-opacity:1;stroke-dasharray:none" inkscape:connector-curvature="0"/>
            <rect width="317.88773" height="51.503345" x="239.3521" y="655.37946" id="rect4206" style="fill:#fcef3c;fill-opacity:1;stroke:#000000;stroke-width:15;stroke-miterlimit:4;stroke-opacity:1;stroke-dasharray:none"/>
          </g>
        </g>
      </g>
      <g transform="matrix(0.15273709,0,0,0.15273709,-54.910501,-289.75657)" id="g4208" style="stroke:#000000;stroke-width:15;stroke-miterlimit:4;stroke-opacity:1;stroke-dasharray:none">
        <path d="m 407.02914,608.69929 c 1.42457,-61.95601 16.75116,-119.53947 45.28957,-174.1086 74.71442,-157.1858 302.92034,-153.43174 252.61522,38.81131 -18.53686,70.83937 -81.50861,112.47386 -156.31886,119.61501 5.39959,-18.66537 35.10029,-84.65245 11.12447,-97.56156 -38.33816,1.4484 -85.94434,67.7051 -97.39282,99.30072 -1.6527,4.5361 -1.19041,9.77801 -3.03584,14.24007" id="path4210" style="fill:#fcef3c;fill-opacity:1;fill-rule:evenodd;stroke:#000000;stroke-width:15;stroke-linecap:butt;stroke-linejoin:miter;stroke-miterlimit:4;stroke-opacity:1;stroke-dasharray:none;display:inline" inkscape:connector-curvature="0"/>
        <g transform="translate(-38.5322,-48.5769)" id="g4212" style="stroke:#000000;stroke-width:15;stroke-miterlimit:4;stroke-opacity:1;stroke-dasharray:none;display:inline">
          <g transform="translate(0,4)" id="g4214" style="fill:#fcef3c;fill-opacity:1;stroke:#000000;stroke-width:15;stroke-miterlimit:4;stroke-opacity:1;stroke-dasharray:none">
            <path d="M 350.52292,657.37224 C 349.09835,595.41623 333.77176,537.83277 305.23335,483.26364 230.51893,326.07784 2.3130139,329.8319 52.618133,522.07495 71.154997,592.91432 134.12674,634.54881 208.93699,641.68996 203.5374,623.02459 173.8367,557.03751 197.81252,544.1284 c 38.33816,1.4484 85.94434,67.7051 97.39282,99.30072 1.6527,4.5361 1.19041,9.77801 3.03584,14.24007" id="path4216" style="fill:#fcef3c;fill-opacity:1;fill-rule:evenodd;stroke:#000000;stroke-width:15;stroke-linecap:butt;stroke-linejoin:miter;stroke-miterlimit:4;stroke-opacity:1;stroke-dasharray:none" inkscape:connector-curvature="0"/>
            <path d="m 393.6259,57.12017 c -78.7143,84.84944 -131.56461,182.96158 -108.78125,298.03125 12.56957,63.48391 43.04182,122.27973 64.53125,183.4375 13.43648,38.36985 16.87223,78.45173 15.28125,118.78125 l 66.78125,0 c -3.19651,-40.62617 3.80671,-79.99824 15.28125,-118.78125 20.47419,-61.5383 51.62579,-119.90553 64.53125,-183.4375 C 535.37892,236.37223 478.74399,146.7919 402.8134,57.49517 l -4.64043,-5.918268 -4.54707,5.543268 z" id="path4218" style="fill:#fcef3c;fill-opacity:1;fill-rule:nonzero;stroke:#000000;stroke-width:15;stroke-linecap:butt;stroke-linejoin:miter;stroke-miterlimit:4;stroke-opacity:1;stroke-dasharray:none" inkscape:connector-curvature="0"/>
            <path d="m 331.34465,704.40142 c -13.96166,39.13002 -70.88818,110.79207 -101.125,131.21875 -7.84217,5.29785 37.48637,-3.05157 57.78125,-7.5 26.61901,-5.83464 61.21745,-34.19759 60.40625,-24.1875 -0.0756,45.83826 12.81104,122.32424 46.40625,157.46875 l 3.18208,3.3876 3.28667,-3.3876 c 33.57769,-39.17095 46.23761,-108.04198 46.40625,-157.46875 -0.8112,-10.01009 33.78725,18.35286 60.40625,24.1875 20.29488,4.44843 65.62342,12.79785 57.78125,7.5 -30.23682,-20.42668 -87.13207,-92.08873 -101.09375,-131.21875 l -133.4375,0 z" id="path4220" style="fill:#fcef3c;fill-opacity:1;fill-rule:evenodd;stroke:#000000;stroke-width:15;stroke-linecap:butt;stroke-linejoin:miter;stroke-miterlimit:4;stroke-opacity:1;stroke-dasharray:none" inkscape:connector-curvature="0"/>
            <rect width="317.88773" height="51.503345" x="239.3521" y="655.37946" id="rect4222" style="fill:#fcef3c;fill-opacity:1;stroke:#000000;stroke-width:15;stroke-miterlimit:4;stroke-opacity:1;stroke-dasharray:none"/>
          </g>
        </g>
      </g>
    </g>
  </g>
  <g id="layer2" inkscape:label="Reflet final" inkscape:groupmode="layer" sodipodi:insensitive="true">
    <use xlink:href="#shield" fill="url(#Gradient1)" id="use3238"/>
  </g>
  <g id="layer1" inkscape:label="Contour final" inkscape:groupmode="layer" style="display:inline" sodipodi:insensitive="true">
    <path sodipodi:nodetypes="cccccc" d="m -1e-5,358.50002 c 0,0 -298.49999,-112.43611 -298.49999,-398.18185 0,-285.74571 0,-258.81817 0,-258.81817 l 596.99999,0 0,258.81817 c 0,285.74574 -298.5,398.18185 -298.5,398.18185 z" style="fill:none;stroke:#000000;stroke-width:3;stroke-linecap:butt;stroke-linejoin:miter;stroke-miterlimit:4;stroke-opacity:1;stroke-dasharray:none;display:inline" id="path1411" inkscape:export-xdpi="144" inkscape:export-ydpi="144" inkscape:connector-curvature="0"/>
  </g>
</svg>